<svg id="Layer_1" enable-background="new 0 0 512 512" height="512" viewBox="0 0 512 512" width="512" xmlns="http://www.w3.org/2000/svg"><path d="m497 70.499c-41.355 0-75 33.645-75 75v60c0 36.219 25.808 66.522 60 73.491v146.84c0 8.284 6.716 15 15 15s15-6.716 15-15v-340.331c0-8.284-6.716-15-15-15zm-45 135v-60c0-19.556 12.539-36.239 30-42.43v144.859c-17.461-6.19-30-22.873-30-42.429z"/><path d="m256 125.499c-82.71 0-150 67.29-150 150s67.29 150 150 150 150-67.29 150-150-67.29-150-150-150zm0 270c-66.168 0-120-53.832-120-120s53.832-120 120-120 120 53.832 120 120-53.832 120-120 120z"/><path d="m286.634 206.273c-11.396 0-22.195 4.135-30.634 11.183-8.437-7.049-19.237-11.183-30.633-11.183-26.328 0-47.747 21.419-47.747 47.747 0 15.797 9.625 33.974 28.608 54.025 14.805 15.637 31.898 28.68 42.271 34.669 2.32 1.34 4.91 2.01 7.5 2.01s5.18-.67 7.5-2.01c8.465-4.887 25.339-18.207 39.939-33.265 20.531-21.176 30.941-39.825 30.941-55.429.002-26.328-21.417-47.747-47.745-47.747zm-4.734 82.293c-9.439 9.737-19.312 18.01-26.159 23.166-21.143-14.879-48.121-43.07-48.121-57.712 0-9.786 7.961-17.747 17.747-17.747 7.336 0 14.009 4.608 16.604 11.466 2.207 5.832 7.792 9.69 14.027 9.69h.001c6.235 0 11.821-3.858 14.028-9.689 2.597-6.859 9.27-11.467 16.605-11.467 9.786 0 17.747 7.961 17.747 17.747.002 5.492-5.903 17.452-22.479 34.546z"/><path d="m110 187v-70.501c0-8.284-6.716-15-15-15s-15 6.716-15 15v70.501c0 8.472-4.008 15.908-10 20.031v-91.532c0-8.284-6.716-15-15-15s-15 6.716-15 15v91.532c-5.992-4.123-10-11.559-10-20.031v-70.501c0-8.284-6.716-15-15-15s-15 6.716-15 15v70.501c0 25.569 17.16 46.991 40 52.223v187.278c0 8.284 6.716 15 15 15s15-6.716 15-15v-187.278c22.84-5.232 40-26.654 40-52.223z"/></svg>