<svg viewBox="0 -54 512 512" xmlns="http://www.w3.org/2000/svg"><path d="m30 394.246094c-11.046875 0-20-8.953125-20-20v-364c40.976562 40.976562 64 96.558594 64 154.511718v56.488282h-24v153c0 11.046875-8.953125 20-20 20zm0 0" fill="#c9f3ff"/><path d="m404 202.246094c0 81.738281-66.261719 148-148 148s-148-66.261719-148-148c0-81.738282 66.261719-148 148-148s148 66.261718 148 148zm0 0" fill="#ade5ff"/><path d="m364 202.246094c0 59.648437-48.351562 108-108 108s-108-48.351563-108-108c0-59.648438 48.351562-108 108-108s108 48.351562 108 108zm0 0" fill="#fff"/><path d="m256 360.246094c-87.121094 0-158-70.878906-158-158s70.878906-158 158-158 158 70.878906 158 158-70.878906 158-158 158zm0-296c-76.09375 0-138 61.90625-138 138s61.90625 138 138 138 138-61.90625 138-138-61.90625-138-138-138zm0 0"/><path d="m256 320.246094c-65.066406 0-118-52.933594-118-118s52.933594-118 118-118 118 52.933594 118 118-52.933594 118-118 118zm0-216c-54.035156 0-98 43.960937-98 98 0 54.039062 43.964844 98 98 98s98-43.960938 98-98c0-54.039063-43.964844-98-98-98zm0 0"/><path d="m281.246094 154.128906c-9.941406 0-18.910156 4.566406-25.246094 11.894532-6.335938-7.324219-15.300781-11.894532-25.246094-11.894532-19.191406 0-34.753906 17.023438-34.753906 38.019532 0 29.417968 60 70.214843 60 70.214843s60-40.796875 60-70.214843c0-20.996094-15.558594-38.019532-34.753906-38.019532zm0 0" fill="#ff5d5d"/><path d="m256 272.363281c-1.964844 0-3.925781-.578125-5.621094-1.730469-.640625-.433593-15.796875-10.78125-31.167968-25.003906-22.347657-20.671875-33.210938-38.164062-33.210938-53.476562 0-26.480469 20.074219-48.023438 44.753906-48.023438 9.054688 0 17.867188 2.976563 25.246094 8.375 7.382812-5.398437 16.191406-8.375 25.246094-8.375 24.679687 0 44.753906 21.542969 44.753906 48.023438 0 15.3125-10.863281 32.804687-33.210938 53.476562-15.371093 14.222656-30.527343 24.570313-31.167968 25.007813-1.695313 1.152343-3.65625 1.726562-5.621094 1.726562zm-25.246094-108.234375c-13.648437 0-24.753906 12.570313-24.753906 28.023438 0 15.289062 27.59375 41.621094 50 57.972656 22.402344-16.347656 50-42.683594 50-57.972656 0-15.453125-11.105469-28.023438-24.753906-28.023438-6.695313 0-12.976563 2.996094-17.683594 8.4375-1.898438 2.195313-4.660156 3.457032-7.5625 3.457032s-5.664062-1.261719-7.5625-3.460938c-4.707031-5.4375-10.984375-8.433594-17.683594-8.433594zm0 0"/><path d="m462 394.246094c-11.046875 0-20-8.953125-20-20v-247.5h40v247.5c0 11.046875-8.953125 20-20 20zm0 0" fill="#c9f3ff"/><path d="m482 249.234375c-2.628906 0-5.210938-1.070313-7.070312-2.929687-1.859376-1.859376-2.929688-4.4375-2.929688-7.070313 0-2.628906 1.070312-5.207031 2.929688-7.070313 1.859374-1.859374 4.441406-2.929687 7.070312-2.929687s5.210938 1.070313 7.070312 2.929687c1.859376 1.863282 2.929688 4.441407 2.929688 7.070313 0 2.632813-1.070312 5.210937-2.929688 7.070313-1.859374 1.859374-4.441406 2.929687-7.070312 2.929687zm0 0"/><path d="m502 0c-5.523438 0-10 4.476562-10 10v92.582031c0 7.808594-6.347656 14.15625-14.152344 14.164063h-5.847656v-106.746094c0-5.523438-4.476562-10-10-10s-10 4.476562-10 10v106.746094h-5.847656c-7.804688-.003906-14.152344-6.355469-14.152344-14.164063v-92.582031c0-5.523438-4.476562-10-10-10s-10 4.476562-10 10v92.582031c0 13.785157 8.214844 25.683594 20 31.078125v240.585938c0 16.542968 13.457031 30 30 30s30-13.457032 30-30v-91.019532c0-5.523437-4.476562-10-10-10s-10 4.476563-10 10v91.019532c0 5.515625-4.484375 10-10 10s-10-4.484375-10-10v-237.5h20v59.488281c0 5.523437 4.476562 10 10 10s10-4.476563 10-10v-62.574219c11.785156-5.394531 20-17.292968 20-31.078125v-92.582031c0-5.523438-4.476562-10-10-10zm0 0"/><path d="m30 404.246094c-16.542969 0-30-13.457032-30-30v-75.011719c0-5.519531 4.476562-10 10-10s10 4.480469 10 10v75.011719c0 5.515625 4.484375 10 10 10s10-4.484375 10-10v-153c0-2.652344 1.054688-5.195313 2.929688-7.070313s4.417968-2.929687 7.070312-2.929687h14v-46.492188c0-47.035156-15.46875-91.691406-44-128.164062v181.644531c0 5.523437-4.476562 10-10 10s-10-4.476563-10-10v-207.988281c0-4.042969 2.4375-7.691406 6.171875-9.238282 3.738281-1.546874 8.039063-.691406 10.898437 2.167969 21.328126 21.328125 37.992188 46.269531 49.535157 74.132813 11.542969 27.867187 17.394531 57.285156 17.394531 87.449218v56.488282c0 2.652344-1.054688 5.195312-2.929688 7.070312s-4.417968 2.929688-7.070312 2.929688h-14v143c0 16.542968-13.457031 30-30 30zm0 0"/><path d="m10 270.496094c-2.628906 0-5.210938-1.070313-7.070312-2.929688-1.859376-1.859375-2.929688-4.441406-2.929688-7.070312s1.070312-5.210938 2.929688-7.070313c1.859374-1.859375 4.441406-2.929687 7.070312-2.929687s5.210938 1.070312 7.070312 2.929687c1.859376 1.859375 2.929688 4.441407 2.929688 7.070313s-1.070312 5.210937-2.929688 7.070312c-1.859374 1.859375-4.441406 2.929688-7.070312 2.929688zm0 0"/></svg>