<svg height="511pt" viewBox="0 -18 511.99995 511" width="511pt" xmlns="http://www.w3.org/2000/svg"><path d="m402.410156 251.953125c0 83.300781-67.53125 150.832031-150.835937 150.832031-83.300781 0-150.832031-67.53125-150.832031-150.832031 0-83.304687 67.53125-150.835937 150.832031-150.835937 83.304687 0 150.835937 67.53125 150.835937 150.835937zm0 0" fill="#75bddb"/><path d="m365.449219 251.953125c0 62.890625-50.980469 113.875-113.875 113.875-62.890625 0-113.875-50.984375-113.875-113.875s50.984375-113.875 113.875-113.875c62.894531 0 113.875 50.984375 113.875 113.875zm0 0" fill="#f0f3f7"/><g fill="#d1e4eb"><path d="m271.574219 355.824219c-62.890625 0-113.875-50.980469-113.875-113.875 0-40.605469 21.261719-76.246094 53.257812-96.40625-42.832031 16.359375-73.257812 57.828125-73.257812 106.40625 0 62.894531 50.984375 113.875 113.875 113.875 22.285156 0 43.066406-6.402344 60.621093-17.464844-12.617187 4.820313-26.308593 7.464844-40.621093 7.464844zm0 0"/><path d="m493.144531 8.023438c-5.660156.367187-9.941406 5.320312-9.941406 10.988281v53.394531c0 6.710938-5.441406 12.15625-12.15625 12.15625s-12.15625-5.445312-12.15625-12.15625v-53.390625c0-5.671875-4.28125-10.625-9.941406-10.992187-6.203125-.402344-11.355469 4.511718-11.355469 10.625v53.757812c0 6.710938-5.445312 12.15625-12.160156 12.15625-6.710938 0-12.15625-5.445312-12.15625-12.15625v-53.390625c0-5.671875-4.28125-10.625-9.9375-10.992187-6.203125-.402344-11.359375 4.511718-11.359375 10.625v93.914062c0 15.167969 6.316406 29.660156 17.445312 39.96875.183594.171875.371094.34375.558594.519531 11.136719 10.316407 17.46875 14.160157 17.46875 29.34375v103.085938l20.785156 20.453125 20.785157-20.453125v-103.085938c0-15.183593 6.332031-19.03125 17.472656-29.347656l.53125-.492187c11.140625-10.316407 17.472656-24.8125 17.472656-39.996094v-93.910156c0-6.117188-5.15625-11.027344-11.355469-10.625zm0 0"/><path d="m55.089844 12.585938c-19.15625 26.390624-45.421875 83.394531-47.585938 250.425781-.160156 12.355469 13.714844 22.46875 26.074219 22.46875l19.160156 23.039062 22.410157-23.039062v-266.355469c0-10.738281-13.753907-15.230469-20.058594-6.539062zm0 0"/></g><path d="m469.027344 285.480469s38.894531 186.078125-23.46875 182.722656c-62.359375 3.355469-18.105469-182.722656-18.105469-182.722656zm0 0" fill="#75bddb"/><path d="m75.148438 285.480469s38.894531 186.078125-23.464844 182.722656c-62.363282 3.355469-18.105469-182.722656-18.105469-182.722656zm0 0" fill="#75bddb"/><path d="m134.636719 145.210938c-26.695313 29.226562-41.394531 67.136718-41.394531 106.742187 0 87.304687 71.027343 158.332031 158.332031 158.332031 87.308593 0 158.335937-71.027344 158.335937-158.332031 0-87.308594-71.027344-158.335937-158.335937-158.335937-33.871094 0-66.183594 10.554687-93.449219 30.519531-3.34375 2.449219-4.066406 7.140625-1.621094 10.480469 2.449219 3.34375 7.140625 4.066406 10.484375 1.621093 24.671875-18.066406 53.921875-27.621093 84.585938-27.621093 79.035156 0 143.332031 64.300781 143.332031 143.335937s-64.296875 143.332031-143.332031 143.332031c-79.035157 0-143.332031-64.300781-143.332031-143.332031 0-35.855469 13.304687-70.171875 37.46875-96.628906 2.792968-3.058594 2.578124-7.800781-.480469-10.59375-3.054688-2.792969-7.800781-2.578125-10.59375.480469zm0 0"/><path d="m344.757812 317.84375c3.53125 2.167969 8.148438 1.0625 10.316407-2.464844 11.695312-19.050781 17.875-40.980468 17.875-63.425781 0-66.925781-54.445313-121.375-121.375-121.375-66.925781 0-121.375 54.449219-121.375 121.375s54.449219 121.375 121.375 121.375c31.523437 0 61.398437-12.035156 84.121093-33.882813 2.984376-2.871093 3.078126-7.621093.207032-10.605468s-7.621094-3.078125-10.605469-.207032c-19.910156 19.148438-46.09375 29.695313-73.71875 29.695313-58.65625 0-106.375-47.722656-106.375-106.375 0-58.65625 47.71875-106.375 106.375-106.375 58.652344 0 106.371094 47.71875 106.371094 106.375 0 19.671875-5.414063 38.890625-15.660157 55.574219-2.164062 3.53125-1.0625 8.148437 2.46875 10.316406zm0 0"/><path d="m176.015625 242.503906v12.320313c0 4.140625 3.359375 7.5 7.5 7.5s7.5-3.359375 7.5-7.5v-12.320313c0-4.140625-3.359375-7.5-7.5-7.5s-7.5 3.359375-7.5 7.5zm0 0"/><path d="m319.636719 235.003906c-4.140625 0-7.5 3.359375-7.5 7.5v12.320313c0 4.140625 3.359375 7.5 7.5 7.5s7.5-3.359375 7.5-7.5v-12.320313c0-4.140625-3.359375-7.5-7.5-7.5zm0 0"/><path d="m262.726562 249.03125c-2.703124 3.09375-6.769531 4.867188-11.148437 4.867188-4.382813 0-8.449219-1.773438-11.152344-4.871094-2.726562-3.117188-7.464843-3.433594-10.582031-.707032-3.121094 2.726563-3.4375 7.460938-.710938 10.582032 5.550782 6.351562 13.734376 9.996094 22.445313 9.996094s16.890625-3.644532 22.445313-9.996094c2.722656-3.117188 2.40625-7.855469-.710938-10.582032-3.121094-2.726562-7.859375-2.410156-10.585938.710938zm0 0"/><path d="m488.019531 161.8125c14.394531-13.03125 23.980469-29.34375 23.980469-49.253906v-93.910156c0-10.402344-8.785156-18.785157-19.34375-18.109376-9.507812.613282-16.953125 8.730469-16.953125 18.476563v53.390625c0 2.566406-2.089844 4.65625-4.65625 4.65625-2.570313 0-4.65625-2.089844-4.65625-4.65625v-53.390625c0-9.746094-7.449219-17.859375-16.957031-18.476563-10.554688-.683593-19.34375 7.707032-19.34375 18.109376v53.757812c0 2.566406-2.085938 4.65625-4.65625 4.65625-2.566406 0-4.65625-2.089844-4.65625-4.65625v-53.390625c0-9.746094-7.449219-17.859375-16.957032-18.476563-10.550781-.683593-19.339843 7.707032-19.339843 18.109376v93.914062c0 19.808594 9.65625 36.277344 23.980469 49.25 8.597656 7.78125 11.492187 10.402344 11.492187 20.582031v102.222657c-1.304687 5.621093-8.363281 36.910156-12.425781 72.664062-6.058594 53.347656-2.269532 89.078125 11.257812 106.195312 6.34375 8.03125 15.03125 12.273438 25.128906 12.273438h3.292969c10.113281 0 18.917969-4.257812 25.460938-12.3125 13.925781-17.136719 18.699219-52.820312 14.191406-106.0625-3.042969-35.921875-9.246094-67.308594-10.332031-72.65625v-102.324219c0-10.179687 2.894531-12.800781 11.492187-20.582031zm-69.492187-11.121094c-11.261719-10.195312-19.046875-22.445312-19.046875-38.128906v-93.914062c0-1.808594 1.539062-3.261719 3.371093-3.140626 1.613282.105469 2.925782 1.675782 2.925782 3.507813v53.390625c0 10.835938 8.820312 19.65625 19.65625 19.65625 10.839844 0 19.65625-8.820312 19.65625-19.65625v-53.757812c0-1.808594 1.539062-3.261719 3.375-3.140626 1.613281.105469 2.925781 1.675782 2.925781 3.507813v53.390625c0 10.835938 8.816406 19.65625 19.65625 19.65625 10.835937 0 19.65625-8.820312 19.65625-19.65625v-53.390625c0-1.832031 1.3125-3.402344 2.925781-3.507813 1.828125-.121093 3.371094 1.332032 3.371094 3.140626v93.875c0 15.601562-7.832031 28.023437-19.050781 38.167968-9.175781 8.308594-16.425781 14.867188-16.425781 31.703125v95.585938h-26.570313v-95.585938c0-16.835937-7.246094-23.398437-16.425781-31.703125zm42.5 303.289063c-4.023438 4.953125-8.808594 7.074219-15.0625 6.734375-.273438-.011719-.539063 0-.808594 0-6.167969.335937-10.800781-1.726563-14.601562-6.535156-21.300782-26.957032-6.183594-120.484376 2.871093-161.199219h29.457031c7.871094 40.75 20.183594 133.878906-1.855468 161zm0 0"/><path d="m24.511719 291.652344c-2.65625 12.339844-7.679688 37.613281-10.859375 65.628906-6.058594 53.347656-2.273438 89.078125 11.253906 106.195312 6.34375 8.03125 15.03125 12.273438 25.132812 12.273438h3.289063c10.113281 0 18.917969-4.257812 25.460937-12.3125 13.929688-17.136719 18.703126-52.820312 14.191407-106.0625-3.042969-35.921875-9.242188-67.308594-10.332031-72.65625v-265.59375c0-10.441406-8.222657-18.625-18.71875-18.625-5.933594 0-11.371094 2.800781-14.910157 7.679688-4.933593 6.796874-19.941406 27.472656-31.386719 75.125-10.734374 44.675781-16.664062 105.105468-17.62890575 179.609374-.08984375 6.886719 2.86328175 13.722657 8.31640575 19.246094 4.394532 4.453125 10.167969 7.769532 16.191407 9.492188zm42.636719 162.328125c-4.023438 4.953125-8.808594 7.074219-15.0625 6.734375-.269532-.011719-.539063-.011719-.808594 0-6.164063.335937-10.796875-1.722656-14.601563-6.535156-21.300781-26.957032-6.183593-120.480469 2.875-161.199219h29.453125c7.871094 40.75 20.183594 133.878906-1.855468 161zm-5.992188-436.988281c.730469-1.003907 1.636719-1.492188 2.773438-1.492188 1.035156 0 3.71875.652344 3.71875 3.628906v258.851563h-34.070313c-5.046875 0-10.773437-2.496094-14.585937-6.355469-1.847657-1.875-4.039063-4.871094-3.992188-8.515625 1.621094-125.054687 16.71875-205.558594 46.15625-246.117187zm0 0"/></svg>