<svg height="512" viewBox="0 0 64 64" width="512" xmlns="http://www.w3.org/2000/svg"><rect fill="#57a4ff" height="3" rx="1" width="60" x="2" y="59"/><path d="m30 27h4a2 2 0 0 1 2 2v2a0 0 0 0 1 0 0h-8a0 0 0 0 1 0 0v-2a2 2 0 0 1 2-2z" fill="#57a4ff"/><path d="m58.47 5.5a12 12 0 0 0 -18.61 14.92l-1.86 5.62 5.61-1.87a12.006 12.006 0 0 0 14.86-18.67zm-8.47 15.5s-7-4.13-7-8a5.866 5.866 0 0 1 .06-.85 5.374 5.374 0 0 1 2.66-4.06 3.331 3.331 0 0 1 .78-.09 3.5 3.5 0 0 1 3.5 3.5 3.5 3.5 0 0 1 3.5-3.5 3.331 3.331 0 0 1 .78.09 5.374 5.374 0 0 1 2.66 4.06 5.866 5.866 0 0 1 .06.85c0 3.87-7 8-7 8z" fill="#57a4ff"/><g fill="#004fac"><path d="m61 58h-1v-1a27.041 27.041 0 0 0 -23-26.7v-1.3a3 3 0 0 0 -3-3h-4a3 3 0 0 0 -3 3v1.3a27.041 27.041 0 0 0 -23 26.7v1h-1a2 2 0 0 0 -2 2v1a2 2 0 0 0 2 2h58a2 2 0 0 0 2-2v-1a2 2 0 0 0 -2-2zm-32-28v-1a1 1 0 0 1 1-1h4a1 1 0 0 1 1 1v1zm-23 27a25.028 25.028 0 0 1 25-25h2a25.028 25.028 0 0 1 25 25v1h-52zm-3 4v-1h58v1z"/><path d="m37.174 33.363a1 1 0 0 0 -.348 1.97 22 22 0 0 1 16.262 12.7 1 1 0 1 0 1.824-.818 23.994 23.994 0 0 0 -17.738-13.852z"/><path d="m23 54h-14a1 1 0 0 0 0 2h14a1 1 0 0 0 0-2z"/><path d="m27 54h-1a1 1 0 0 0 0 2h1a1 1 0 0 0 0-2z"/><path d="m37.051 25.728a1 1 0 0 0 .949 1.314 1.022 1.022 0 0 0 .317-.052l5.173-1.73a13 13 0 0 0 15.687-20.468 12.913 12.913 0 0 0 -9.177-3.792h-.023a13.006 13.006 0 0 0 -11.215 19.55zm5.157-19.493a10.923 10.923 0 0 1 7.772-3.235h.02a11 11 0 0 1 7.792 18.766 10.94 10.94 0 0 1 -13.648 1.553 1 1 0 0 0 -.533-.153.989.989 0 0 0 -.317.052l-3.718 1.242 1.231-3.722a1 1 0 0 0 -.105-.849 10.947 10.947 0 0 1 1.506-13.654z"/><path d="m49.492 21.861a1 1 0 0 0 1.016 0c.767-.452 7.492-4.545 7.492-8.861a6.687 6.687 0 0 0 -.067-.975 6.416 6.416 0 0 0 -3.14-4.794 1.01 1.01 0 0 0 -.279-.113 4.343 4.343 0 0 0 -1.014-.118 4.5 4.5 0 0 0 -3.5 1.674 4.5 4.5 0 0 0 -3.5-1.674 4.343 4.343 0 0 0 -1.014.118 1.01 1.01 0 0 0 -.279.113 6.4 6.4 0 0 0 -3.137 4.769 6.784 6.784 0 0 0 -.07 1c0 4.316 6.725 8.409 7.492 8.861zm-5.44-9.586a4.386 4.386 0 0 1 2.048-3.242 2.412 2.412 0 0 1 .4-.033 2.5 2.5 0 0 1 2.5 2.5 1 1 0 0 0 2 0 2.5 2.5 0 0 1 2.5-2.5 2.412 2.412 0 0 1 .4.033 4.4 4.4 0 0 1 2.051 3.267 4.883 4.883 0 0 1 .049.7c0 2.475-3.946 5.511-6 6.825-1.984-1.278-6-4.367-6-6.825a4.96 4.96 0 0 1 .052-.725z"/></g></svg>