<svg height="512pt" viewBox="0 -41 512.00017 512" width="512pt" xmlns="http://www.w3.org/2000/svg"><path d="m485.980469 212.492188h-130.488281c.503906-3.308594.039062-6.734376-1.664063-9.726563-2.675781-4.707031-7.691406-7.628906-13.097656-7.628906h-325.671875c-5.40625 0-10.421875 2.925781-13.09375 7.628906-2.679688 4.726563-2.613282 10.558594.164062 15.21875l14.15625 23.710937c3.078125 5.171876 4.703125 11.082032 4.703125 17.105469v4.015625c0 29.671875 24.03125 53.816406 53.5625 53.816406h206.667969c28.949219 0 52.546875-23.214843 53.472656-52.070312h151.273438c14.351562 0 26.035156-11.679688 26.035156-26.035156 0-14.355469-11.664062-26.035156-26.019531-26.035156zm-204.746094 86.78125h-206.675781c-8.851563 0-16.867188-3.339844-23.167969-8.679688h96.128906c4.789063 0 8.679688-3.878906 8.679688-8.675781 0-4.800781-3.890625-8.679688-8.679688-8.679688h-107.472656c-.835937-2.777343-1.375-5.667969-1.519531-8.679687h76.757812c4.789063 0 8.679688-3.878906 8.679688-8.675782 0-4.800781-3.890625-8.679687-8.679688-8.679687h-78.371094c-1.191406-5.042969-3.046874-9.910156-5.722656-14.398437l-12.121094-20.316407h317.652344l-12.121094 20.316407c-1.058593 1.78125-1.988281 3.644531-2.820312 5.554687-.496094 1.128906-.886719 2.300781-1.292969 3.464844-.246093.710937-.523437 1.394531-.738281 2.117187-.480469 1.550782-.84375 3.128906-1.164062 4.71875-.070313.339844-.148438.667969-.207032 1.007813-.324218 1.734375-.539062 3.480469-.671875 5.25-.007812.121093-.035156.234375-.042969.355469l-.648437 9.277343h.257813c-.933594 19.285157-16.667969 34.722657-36.039063 34.722657zm204.746094-52.070313h-149.03125c.035156-.09375.066406-.199219.101562-.292969.660157-1.78125 1.449219-3.488281 2.398438-5.085937.015625-.035157.035156-.070313.050781-.105469l7.074219-11.863281h139.398437c4.789063 0 8.679688 3.890625 8.679688 8.679687 0 4.789063-3.886719 8.667969-8.671875 8.667969zm0 0"/><path d="m329.773438 412.09375h-42.558594c15.140625-11.527344 23.65625-19.875 25.019531-30.132812 1.472656-11.152344-5.484375-20.125-17.019531-34.992188-2.246094-2.886719-4.703125-6.046875-7.332032-9.535156l-5.234374-6.925782-6.921876 5.230469c-15.824218 11.949219-24.65625 20.429688-26.046874 30.921875-1.472657 11.152344 5.484374 20.125 17.019531 34.992188 2.246093 2.890625 4.703125 6.046875 7.332031 9.535156l.679688.902344h-89.457032c15.144532-11.523438 23.65625-19.871094 25.019532-30.128906 1.476562-11.152344-5.484376-20.128907-17.015626-34.992188-2.25-2.890625-4.707031-6.046875-7.335937-9.539062l-5.230469-6.925782-6.925781 5.234375c-15.820313 11.949219-24.65625 20.429688-26.042969 30.921875-1.476562 11.152344 5.484375 20.125 17.015625 34.988282 2.25 2.890624 4.707031 6.050781 7.332031 9.539062l.679688.902344h-91.636719c15.140625-11.527344 23.65625-19.875 25.019531-30.132813 1.472657-11.152343-5.484374-20.125-17.019531-34.988281-2.246093-2.890625-4.703125-6.050781-7.332031-9.539062l-5.230469-6.925782-6.925781 5.234375c-15.820312 11.949219-24.65625 20.425781-26.042969 30.917969-1.476562 11.152344 5.484375 20.128906 17.015625 34.992188 2.246094 2.890624 4.703125 6.046874 7.332032 9.539062l.679687.902344h-33.902344c-4.789062 0-8.675781 3.878906-8.675781 8.675781 0 4.800781 3.886719 8.679687 8.675781 8.679687h295.066407c4.789062 0 8.675781-3.878906 8.675781-8.679687 0-4.792969-3.886719-8.671875-8.675781-8.671875zm-62.894532-43.148438c.460938-3.480468 6.09375-8.855468 12.507813-14.058593.71875.9375 1.429687 1.847656 2.117187 2.722656 8.15625 10.511719 14.046875 18.105469 13.527344 22.070313-.457031 3.480468-6.089844 8.851562-12.503906 14.058593-.71875-.9375-1.433594-1.847656-2.117188-2.726562-8.167968-10.507813-14.058594-18.101563-13.53125-22.066407zm-101.96875 0c.460938-3.480468 6.089844-8.855468 12.503906-14.058593.722657.9375 1.433594 1.847656 2.117188 2.722656 8.160156 10.511719 14.050781 18.105469 13.53125 22.070313-.460938 3.480468-6.089844 8.851562-12.503906 14.058593-.722656-.9375-1.433594-1.847656-2.117188-2.726562-8.160156-10.507813-14.050781-18.101563-13.53125-22.066407zm-104.140625 0c.460938-3.480468 6.09375-8.855468 12.507813-14.058593.71875.9375 1.429687 1.847656 2.117187 2.722656 8.15625 10.511719 14.046875 18.105469 13.527344 22.070313-.457031 3.480468-6.089844 8.851562-12.503906 14.058593-.722657-.9375-1.433594-1.847656-2.117188-2.726562-8.160156-10.507813-14.050781-18.101563-13.53125-22.066407zm0 0"/><path d="m80.191406 119.136719c0 16.210937 6.328125 31.476562 17.808594 42.949219 1.691406 1.695312 3.914062 2.542968 6.136719 2.542968 2.21875 0 4.441406-.851562 6.132812-2.542968 3.394531-3.390626 3.394531-8.878907 0-12.269532-8.199219-8.199218-12.71875-19.101562-12.71875-30.679687 0-11.582031 4.519531-22.484375 12.71875-30.683594 11.484375-11.472656 17.808594-26.738281 17.808594-42.957031 0-16.214844-6.324219-31.476563-17.808594-42.949219-3.390625-3.394531-8.875-3.394531-12.269531 0-3.394531 3.390625-3.394531 8.875 0 12.269531 8.203125 8.199219 12.722656 19.101563 12.722656 30.679688 0 11.582031-4.519531 22.484375-12.722656 30.683594-11.492188 11.472656-17.808594 26.738281-17.808594 42.957031zm0 0"/><path d="m186.425781 119.136719c0 16.210937 6.324219 31.476562 17.804688 42.949219 1.695312 1.695312 3.914062 2.542968 6.136719 2.542968 2.222656 0 4.441406-.851562 6.136718-2.542968 3.394532-3.390626 3.394532-8.878907 0-12.269532-8.203125-8.199218-12.722656-19.101562-12.722656-30.679687 0-11.582031 4.519531-22.484375 12.722656-30.683594 11.480469-11.472656 17.808594-26.738281 17.808594-42.957031 0-16.214844-6.328125-31.476563-17.808594-42.949219-3.394531-3.394531-8.878906-3.394531-12.269531 0-3.394531 3.390625-3.394531 8.875 0 12.269531 8.199219 8.199219 12.71875 19.101563 12.71875 30.679688 0 11.582031-4.519531 22.484375-12.71875 30.683594-11.484375 11.472656-17.808594 26.738281-17.808594 42.957031zm0 0"/></svg>