<svg id="Capa_1" enable-background="new 0 0 531.765 531.765" height="512" viewBox="0 0 531.765 531.765" width="512" xmlns="http://www.w3.org/2000/svg"><path d="m315.734 299.118h-99.706c-9.185 0-16.618 7.432-16.618 16.618v49.853c0 18.322 14.914 33.235 33.235 33.235h66.471c18.322 0 33.235-14.914 33.235-33.235v-49.853c.001-9.186-7.432-16.618-16.617-16.618zm-83.088 66.47v-33.235h66.471v33.235h.032z"/><path d="m502.586 311.289c-14.265-16.831-33.178-39.092-70.528-44.272v-17.752c0-9.185-7.432-16.618-16.618-16.618-27.491 0-49.853-22.362-49.853-49.853v-83.088c.001-54.981-44.724-99.706-99.705-99.706s-99.706 44.725-99.706 99.706v83.088c0 27.49-22.362 49.853-49.853 49.853-9.185 0-16.618 7.433-16.618 16.618v18.443c-25.991 5.363-41.392 22.61-54.056 37.09-15.399 17.591-25.104 27.555-45.649 27.555v33.235c36.627 0 55.5-21.567 70.674-38.915 10.518-12.013 18.561-20.133 29.032-24.287v179.526c0 27.491 22.362 49.853 49.853 49.853h232.647c27.491 0 49.853-22.362 49.853-49.853v-180.624c21.452 4.615 33.31 17.498 45.163 31.487 13.031 15.384 27.799 32.813 54.543 32.813v-33.235c-10.841 0-17.462-7.222-29.179-21.064zm-236.704-278.054c36.66 0 66.471 29.811 66.471 66.471v66.471h-132.941v-66.471c0-36.66 29.811-66.471 66.47-66.471zm132.942 448.677c0 9.169-7.449 16.618-16.618 16.618h-232.647c-9.169 0-16.618-7.449-16.618-16.618v-217.701c32.489-6.625 58.006-32.314 64.649-64.799h136.584c6.643 32.485 32.16 58.174 64.649 64.799v217.701z"/></svg>