<svg id="Layer_3" enable-background="new 0 0 64 64" height="512" viewBox="0 0 64 64" width="512" xmlns="http://www.w3.org/2000/svg"><path d="m10 29h24c.553 0 1-.448 1-1v-8c0-.552-.447-1-1-1h-24c-.553 0-1 .448-1 1v8c0 .552.447 1 1 1zm1-8h22v6h-22z"/><path d="m13 23h18v2h-18z"/><path d="m32 49h-1v-1c0-3.909-2.51-7.235-6-8.475v-1.525c0-1.654-1.346-3-3-3s-3 1.346-3 3v1.525c-3.49 1.239-6 4.565-6 8.475v1h-1c-.553 0-1 .448-1 1v4c0 .552.447 1 1 1h20c.553 0 1-.448 1-1v-4c0-.552-.447-1-1-1zm-11-11c0-.551.448-1 1-1s1 .449 1 1v1.059c-.329-.037-.662-.059-1-.059s-.671.022-1 .059zm-6 10c0-3.86 3.141-7 7-7s7 3.14 7 7v1h-14zm16 5h-18v-2h18z"/><path d="m62 1h-36c-.553 0-1 .448-1 1v13h-21c-.553 0-1 .448-1 1v5h-1c-.553 0-1 .448-1 1v4c0 .552.447 1 1 1h1v2h-1c-.553 0-1 .448-1 1v4c0 .552.447 1 1 1h1v2h-1c-.553 0-1 .448-1 1v4c0 .552.447 1 1 1h1v2h-1c-.553 0-1 .448-1 1v4c0 .552.447 1 1 1h1v2h-1c-.553 0-1 .448-1 1v4c0 .552.447 1 1 1h1v3c0 .552.447 1 1 1h34c.553 0 1-.448 1-1v-13h4v13c0 .552.447 1 1 1h17c.553 0 1-.448 1-1v-8c0-.265-.105-.52-.293-.707l-2-2c-.187-.188-.441-.293-.707-.293h-1.586l-1.707-1.707c-.187-.188-.441-.293-.707-.293h7c.553 0 1-.448 1-1v-46c0-.552-.447-1-1-1zm-59 22h2v2h-2zm0 8h2v2h-2zm0 8h2v2h-2zm0 8h2v2h-2zm0 8h2v2h-2zm34 6h-32v-2h1c.553 0 1-.448 1-1v-4c0-.552-.447-1-1-1h-1v-2h1c.553 0 1-.448 1-1v-4c0-.552-.447-1-1-1h-1v-2h1c.553 0 1-.448 1-1v-4c0-.552-.447-1-1-1h-1v-2h1c.553 0 1-.448 1-1v-4c0-.552-.447-1-1-1h-1v-2h1c.553 0 1-.448 1-1v-4c0-.552-.447-1-1-1h-1v-4h32zm19.293-8.293c.187.188.441.293.707.293h1.586l1.414 1.414v6.586h-15v-23c0-.551.448-1 1-1s1 .449 1 1v10c0 .552.447 1 1 1h2.586l1.707 1.707c.187.188.441.293.707.293h1.586zm4.707-5.707h-10-2v-9c0-1.654-1.346-3-3-3s-3 1.346-3 3v9h-4v-6h2v-2h-2v-2h2v-2h-2v-2h2v-2h-2v-2h2v-2h-2v-2h2v-2h-2v-2h2v-2h-2v-2h2v-2h-3-11v-12h34z"/><path d="m30 13h28c.553 0 1-.448 1-1v-6c0-.552-.447-1-1-1h-28c-.553 0-1 .448-1 1v6c0 .552.447 1 1 1zm1-6h26v4h-26z"/><path d="m47 15h12v2h-12z"/><path d="m47 19h12v2h-12z"/><path d="m47 23h12v2h-12z"/><path d="m47 27h12v2h-12z"/><path d="m47 31h12v2h-12z"/><path d="m51 35h8v2h-8z"/><path d="m51 39h8v2h-8z"/><path d="m43 15h2v2h-2z"/><path d="m43 19h2v2h-2z"/><path d="m43 23h2v2h-2z"/><path d="m43 27h2v2h-2z"/><path d="m43 31h2v2h-2z"/></svg>