<svg id="Layer_5" enable-background="new 0 0 64 64" height="512" viewBox="0 0 64 64" width="512" xmlns="http://www.w3.org/2000/svg"><path d="m45 37.172v-19.172c0-1.654-1.346-3-3-3s-3 1.346-3 3v19.172c0 1.534-.622 3.036-1.707 4.121-1.457 1.457-2.293 3.475-2.293 5.535v12.172h2v-10h2v10h2v-10h2v10h2v-10h2v10h2v-12.172c0-2.061-.836-4.078-2.293-5.535-1.085-1.085-1.707-2.587-1.707-4.121zm2 9.828h-10v-.172c0-1.534.622-3.036 1.707-4.121 1.457-1.457 2.293-3.475 2.293-5.535v-19.172c0-.552.448-1 1-1s1 .448 1 1v19.172c0 2.061.836 4.078 2.293 5.535 1.085 1.085 1.707 2.587 1.707 4.121z"/><path d="m35 26.616c0-5.027-2.985-9.555-7.606-11.535l-.189-.081h-2.205v41c0 1.654 1.346 3 3 3s3-1.346 3-3v-15.101l1.949-1.95c1.322-1.321 2.051-3.079 2.051-4.949zm-2 7.384c0 1.336-.521 2.591-1.465 3.535l-2.535 2.536v15.929c0 .552-.448 1-1 1s-1-.448-1-1v-38.902c3.659 1.747 6 5.438 6 9.519z"/><path d="m60 33c1.654 0 3-1.346 3-3s-1.346-3-3-3h-3v-2h3c1.654 0 3-1.346 3-3s-1.346-3-3-3h-3v-2c0-3.309-2.691-6-6-6v-10h-38c-3.309 0-6 2.691-6 6v14h-3c-1.654 0-3 1.346-3 3v2c0 1.654 1.346 3 3 3h3v4h-3c-1.654 0-3 1.346-3 3v2c0 1.654 1.346 3 3 3h3v4h-3c-1.654 0-3 1.346-3 3v2c0 1.654 1.346 3 3 3h3v4c0 3.309 2.691 6 6 6h38c3.309 0 6-2.691 6-6v-16h3c1.654 0 3-1.346 3-3s-1.346-3-3-3h-3v-2zm-47-30h36v8h-2v-6h-36v2h34v4h-32c-2.206 0-4-1.794-4-4s1.794-4 4-4zm-10 23v-2c0-.552.448-1 1-1h8c.552 0 1 .448 1 1v2c0 .552-.448 1-1 1h-8c-.552 0-1-.448-1-1zm0 12v-2c0-.552.448-1 1-1h8c.552 0 1 .448 1 1v2c0 .552-.448 1-1 1h-8c-.552 0-1-.448-1-1zm0 12v-2c0-.552.448-1 1-1h8c.552 0 1 .448 1 1v2c0 .552-.448 1-1 1h-8c-.552 0-1-.448-1-1zm6 7v-4h3c1.654 0 3-1.346 3-3v-2c0-1.654-1.346-3-3-3h-3v-4h3c1.654 0 3-1.346 3-3v-2c0-1.654-1.346-3-3-3h-3v-4h3c1.654 0 3-1.346 3-3v-2c0-1.654-1.346-3-3-3h-3v-9.54c1.063.954 2.462 1.54 4 1.54h4v48h-4c-2.206 0-4-1.794-4-4zm46 0c0 2.206-1.794 4-4 4h-32v-48h32c2.206 0 4 1.794 4 4zm5-28c.552 0 1 .448 1 1s-.448 1-1 1h-3v-2zm0-8c.552 0 1 .448 1 1s-.448 1-1 1h-3v-2zm0 16c.552 0 1 .448 1 1s-.448 1-1 1h-3v-2z"/><path d="m51 23h2v2h-2z"/><path d="m51 15h2v2h-2z"/><path d="m51 19h2v2h-2z"/><path d="m51 27h2v2h-2z"/><path d="m21 57h2v2h-2z"/><path d="m21 53h2v2h-2z"/><path d="m21 49h2v2h-2z"/></svg>