<svg id="Layer_5" enable-background="new 0 0 64 64" height="512" viewBox="0 0 64 64" width="512" xmlns="http://www.w3.org/2000/svg"><g fill="#f0bc5e"><path d="m56 20h4c1.105 0 2 .895 2 2 0 1.105-.895 2-2 2h-4z"/><path d="m56 28h4c1.105 0 2 .895 2 2 0 1.105-.895 2-2 2h-4z"/><path d="m56 36h4c1.105 0 2 .895 2 2 0 1.105-.895 2-2 2h-4z"/><path d="m12 52h-8c-1.105 0-2-.895-2-2v-2c0-1.105.895-2 2-2h8c1.105 0 2 .895 2 2v2c0 1.105-.895 2-2 2z"/><path d="m12 40h-8c-1.105 0-2-.895-2-2v-2c0-1.105.895-2 2-2h8c1.105 0 2 .895 2 2v2c0 1.105-.895 2-2 2z"/><path d="m12 28h-8c-1.105 0-2-.895-2-2v-2c0-1.105.895-2 2-2h8c1.105 0 2 .895 2 2v2c0 1.105-.895 2-2 2z"/></g><path d="m7 28h2v6h-2z"/><path d="m7 40h2v6h-2z"/><path d="m51 15h2v2h-2z"/><path d="m51 23h2v2h-2z"/><path d="m51 19h2v2h-2z"/><path d="m51 27h2v2h-2z"/><path d="m45 37.172v-19.172c0-1.654-1.346-3-3-3s-3 1.346-3 3v19.172c0 1.534-.622 3.036-1.707 4.121-1.457 1.457-2.293 3.475-2.293 5.535v12.172h2v-10h2v10h2v-10h2v10h2v-10h2v10h2v-12.172c0-2.061-.836-4.078-2.293-5.535-1.085-1.085-1.707-2.587-1.707-4.121zm2 9.828h-10v-.172c0-1.534.622-3.036 1.707-4.121 1.457-1.457 2.293-3.475 2.293-5.535v-19.172c0-.552.448-1 1-1s1 .448 1 1v19.172c0 2.061.836 4.078 2.293 5.535 1.085 1.085 1.707 2.587 1.707 4.121z"/><path d="m35 26.616c0-5.027-2.985-9.555-7.606-11.535l-.189-.081h-2.205v41c0 1.654 1.346 3 3 3s3-1.346 3-3v-15.101l1.949-1.95c1.322-1.321 2.051-3.079 2.051-4.949zm-2 7.384c0 1.336-.521 2.591-1.465 3.535l-2.535 2.536v15.929c0 .552-.448 1-1 1s-1-.448-1-1v-38.902c3.659 1.747 6 5.438 6 9.519z"/><path d="m51 11v-10h-38c-3.309 0-6 2.691-6 6v15h2v-10.54c1.063.954 2.462 1.54 4 1.54h4v48h-4c-2.206 0-4-1.794-4-4v-5h-2v5c0 3.309 2.691 6 6 6h38c3.309 0 6-2.691 6-6v-40c0-3.309-2.691-6-6-6zm-42-4c0-2.206 1.794-4 4-4h36v8h-2v-6h-36v2h34v4h-32c-2.206 0-4-1.794-4-4zm46 50c0 2.206-1.794 4-4 4h-32v-48h32c2.206 0 4 1.794 4 4z"/><path d="m21 49h2v2h-2z"/><path d="m21 53h2v2h-2z"/><path d="m21 57h2v2h-2z"/></svg>