<svg id="Capa_1" enable-background="new 0 0 481.37 481.37" height="512" viewBox="0 0 481.37 481.37" width="512" xmlns="http://www.w3.org/2000/svg"><path d="m280.685 368.683c-.003-8.656-2.814-17.077-8.01-24 3.692-4.92 6.2-10.625 7.331-16.672 21.724-4.049 36.052-24.943 32.002-46.667-2.534-13.593-11.906-24.914-24.786-29.941.54-1.941.932-3.92 1.174-5.92 20.324-8.689 29.756-32.209 21.067-52.533-4.049-9.472-11.595-17.018-21.067-21.067-.349-2.88-1.008-5.715-1.967-8.453 14.776-16.439 13.428-41.743-3.011-56.52-1.092-.982-2.238-1.903-3.431-2.758 3.965-20.936-9.168-41.308-29.873-46.341-17.058-14.05-42.276-11.611-56.326 5.446-.568.69-1.113 1.399-1.634 2.126-15.415-2.919-31.114 3.436-40.157 16.257-18.293 4.075-31.307 20.302-31.312 39.043 0 1.099.045 2.196.136 3.292-9.377 4.1-16.851 11.601-20.919 20.992-20.084 2.446-35.192 19.483-35.217 39.716v.009c-14.256 10.698-19.719 29.534-13.4 46.2-18.661 11.815-24.21 36.52-12.395 55.181 2.595 4.099 5.914 7.691 9.795 10.601v.009c.025 20.233 15.133 37.27 35.217 39.716 4.068 9.391 11.542 16.892 20.919 20.992-.091 1.095-.136 2.193-.136 3.292.025 22.081 17.919 39.975 40 40h.008c7.562 10.059 19.408 15.984 31.992 16h.008c13.258 17.675 38.333 21.255 56.007 7.998 5.616-4.212 10.024-9.828 12.783-16.284 20.078-2.453 35.177-19.488 35.202-39.714zm-16-48c-.006 6.889-2.969 13.444-8.137 18-3.314 2.922-3.631 7.978-.708 11.292.221.251.458.487.708.708 9.944 8.758 10.906 23.92 2.147 33.865-4.556 5.173-11.117 8.137-18.01 8.135-.172 0-.343-.008-.514-.014l-.231-.007c-3.75-.13-7.083 2.371-8.006 6.007-3.303 12.837-16.387 20.565-29.224 17.261-6.329-1.629-11.72-5.768-14.928-11.461-1.603-2.832-4.759-4.413-7.987-4-9.706 1.293-19.22-3.462-24.013-12-1.602-2.832-4.759-4.413-7.987-4-13.136 1.725-25.183-7.525-26.909-20.661-.426-3.241-.185-6.535.709-9.679 1.204-4.251-1.266-8.673-5.517-9.877-.163-.046-.327-.087-.492-.123-8.85-1.954-15.86-8.699-18.153-17.467-.932-3.631-4.26-6.127-8.006-6.007l-.231.007c-.171.006-.342.014-.514.014-13.228.027-23.973-10.676-24-23.904-.002-1.072.068-2.143.209-3.206.416-3.228-1.166-6.387-4-7.988-11.545-6.512-15.625-21.15-9.114-32.695 2.86-5.07 7.464-8.928 12.957-10.855 4.17-1.46 6.366-6.025 4.906-10.195-.224-.64-.528-1.248-.906-1.811-7.365-11.021-4.401-25.925 6.62-33.289.503-.336 1.018-.653 1.544-.95 2.834-1.601 4.416-4.76 4-7.988-1.745-13.113 7.47-25.157 20.583-26.903 1.062-.141 2.133-.211 3.204-.209.172 0 .343.008.514.014l.231.007c3.748.126 7.079-2.373 8.006-6.007 2.293-8.767 9.301-15.512 18.149-17.467 4.319-.932 7.064-5.189 6.132-9.508-.036-.165-.077-.329-.123-.492-3.62-12.743 3.776-26.008 16.519-29.628 1.204-.342 2.432-.589 3.674-.739 2.524-.303 4.754-1.788 6.007-4 5.814-10.272 18.233-14.793 29.291-10.664 3.865 1.447 8.196-.283 10-3.994 5.787-11.925 20.145-16.901 32.07-11.114 2.129 1.033 4.094 2.376 5.83 3.984 1.119 1.035 2.511 1.729 4.011 2 13.042 2.385 21.682 14.891 19.297 27.934-.254 1.39-.63 2.754-1.124 4.077-1.447 3.865.283 8.196 3.994 10 11.925 5.787 16.901 20.145 11.115 32.07-1.532 3.157-3.738 5.94-6.462 8.152-2.977 2.424-3.813 6.62-1.992 10 1.892 3.492 2.876 7.403 2.861 11.375 0 .162-.007.324-.013.484l-.008.272c-.118 3.744 2.379 7.069 6.008 8 12.841 3.31 20.567 16.403 17.257 29.243-2.182 8.465-8.792 15.075-17.257 17.257-3.629.931-6.126 4.256-6.008 8l.008.272c.006.16.013.322.013.484.002 4.271-1.137 8.464-3.3 12.147-2.241 3.808-.972 8.711 2.836 10.953.971.571 2.051.931 3.17 1.056 13.162 1.564 22.564 13.502 21 26.664-1.429 12.027-11.595 21.104-23.706 21.168-4.418 0-8 3.581-8 8z"/><path d="m410.391 70.983c-93.346-94.104-245.304-94.719-339.408-1.374s-94.719 245.304-1.374 339.408c.455.459.912.915 1.37 1.37 93.346 94.104 245.304 94.719 339.408 1.374s94.719-245.304 1.374-339.408c-.455-.459-.911-.915-1.37-1.37zm-11.314 328.1c-87.48 87.477-229.311 87.476-316.788-.004s-87.476-229.311.004-316.788c87.477-87.477 229.307-87.477 316.784 0s87.477 229.307 0 316.784z"/><path d="m341.931 136.217c26.772 29.419 24.626 74.971-4.794 101.743-5.812 5.289-12.451 9.591-19.652 12.736l6.406 14.662c44.55-19.451 64.897-71.334 45.446-115.884-12.73-29.156-40.203-49.174-71.858-52.357l-1.582 15.921c17.685 1.762 34.087 10.021 46.034 23.179z"/><path d="m328.685 184.683c.006 9.839-3.62 19.335-10.183 26.665l11.922 10.67c20.62-23.058 18.644-58.467-4.414-79.087-2.866-2.563-5.989-4.825-9.319-6.748l-8.012 13.85c12.358 7.168 19.976 20.363 20.006 34.65z"/><path d="m392.685 184.683c0 43.115-26.591 81.764-66.858 97.174l5.716 14.943c61.91-23.681 92.9-93.067 69.219-154.977-17.768-46.451-62.344-77.132-112.077-77.14v16c57.411.065 103.935 46.589 104 104z"/><path d="m288.685 392.683c48.641-.04 88.04-39.503 88-88.144-.005-5.86-.594-11.704-1.76-17.447l-15.68 3.182c7.917 39.01-17.289 77.052-56.299 84.969-4.694.953-9.471 1.435-14.261 1.44z"/><path d="m288.685 360.683c30.914-.035 55.965-25.086 56-56h-16c-.025 22.081-17.919 39.975-40 40z"/><path d="m385.859 267.54c20.473 53.708-6.469 113.844-60.177 134.317-11.815 4.504-24.352 6.817-36.997 6.826-7.496.002-14.97-.801-22.294-2.394l-3.412 15.633c64.804 14.142 128.803-26.928 142.945-91.733 1.829-8.379 2.754-16.93 2.761-25.506.021-14.648-2.65-29.175-7.882-42.857z"/><path d="m104.685 200.683v16c13.249.015 23.985 10.751 24 24h16c-.025-22.081-17.919-39.976-40-40z"/><path d="m199.902 121.459-15.689 3.139c2.584 12.994-5.839 25.628-18.827 28.24l3.137 15.69c21.648-4.355 35.685-25.412 31.379-47.069z"/><path d="m240.685 160.683h16v16h-16z"/><path d="m128.685 288.683h16v16h-16z"/><path d="m224.685 312.683h16v16h-16z"/><path d="m224.685 96.683h16v16h-16z"/><path d="m154.254 331.183-3.138 15.689c12.989 2.612 21.411 15.247 18.827 28.241l15.69 3.138c4.306-21.658-9.731-42.714-31.379-47.068z"/><path d="m234.259 234.886-1.896-8.531 17.118-1.712-1.592-15.92-19.022 1.902-4.372-19.677-15.62 3.47 3.958 17.811-44.944 4.494 1.592 15.92 46.848-4.685 1.896 8.532-42.336 4.233 1.592 15.92 44.239-4.424 3.155 14.199 15.62-3.47-2.741-12.332 19.727-1.973-1.592-15.92z"/></svg>