<svg id="Capa_1" enable-background="new 0 0 448.001 448.001" height="512" viewBox="0 0 448.001 448.001" width="512" xmlns="http://www.w3.org/2000/svg"><path d="m280 272.001c.018-12.216-9.159-22.49-21.3-23.844-4.391-.49-7.553-4.448-7.062-8.839.125-1.119.485-2.2 1.056-3.17 2.165-3.682 3.306-7.876 3.306-12.147 0-.162-.007-.324-.013-.484l-.008-.272c-.118-3.744 2.379-7.069 6.008-8 12.841-3.31 20.567-16.403 17.257-29.243-2.182-8.465-8.792-15.075-17.257-17.257-3.629-.931-6.126-4.256-6.008-8l.008-.272c.006-.16.013-.322.013-.484.015-3.971-.969-7.881-2.861-11.372-1.821-3.38-.985-7.576 1.992-10 10.289-8.356 11.856-23.471 3.499-33.76-2.212-2.724-4.995-4.93-8.152-6.462-3.711-1.804-5.441-6.135-3.994-10 4.628-12.425-1.693-26.249-14.117-30.877-1.317-.49-2.674-.864-4.056-1.117-1.5-.271-2.892-.965-4.011-2-9.725-9.007-24.91-8.425-33.916 1.3-1.608 1.736-2.951 3.701-3.984 5.83-1.804 3.711-6.135 5.441-10 3.994-11.059-4.128-23.478.396-29.291 10.67-1.253 2.212-3.483 3.697-6.007 4-13.151 1.591-22.523 13.541-20.932 26.693.15 1.242.397 2.471.739 3.674 1.204 4.251-1.266 8.673-5.517 9.877-.163.046-.327.087-.492.123-8.85 1.954-15.86 8.699-18.153 17.467-.927 3.634-4.258 6.133-8.006 6.007l-.231-.007c-.171-.006-.342-.014-.514-.014-13.228-.027-23.973 10.676-24 23.904-.002 1.072.068 2.143.209 3.206.416 3.228-1.166 6.387-4 7.988-11.546 6.51-15.628 21.148-9.117 32.694.299.53.618 1.049.956 1.554 2.461 3.67 1.481 8.639-2.189 11.1-.563.378-1.172.682-1.811.906-12.507 4.389-19.088 18.086-14.698 30.593 1.928 5.492 5.785 10.097 10.855 12.956 2.834 1.601 4.416 4.76 4 7.988-1.736 13.114 7.487 25.152 20.601 26.889 1.06.14 2.129.21 3.198.207.172 0 .343-.008.514-.014l.231-.007c3.746-.12 7.074 2.376 8.006 6.007 2.293 8.767 9.301 15.512 18.149 17.467 4.319.932 7.064 5.189 6.132 9.508-.036.165-.077.329-.123.492-3.638 12.724 3.727 25.988 16.451 29.626 3.166.905 6.485 1.148 9.749.714 3.228-.413 6.385 1.168 7.987 4 4.793 8.538 14.307 13.293 24.013 12 3.228-.413 6.384 1.168 7.987 4 6.507 11.548 21.143 15.635 32.691 9.128 5.693-3.208 9.833-8.599 11.461-14.928.923-3.636 4.256-6.137 8.006-6.007l.231.007c.171.006.342.014.514.014 13.252.002 23.996-10.738 23.998-23.99.001-6.893-2.962-13.454-8.135-18.01-3.314-2.922-3.631-7.978-.708-11.292.221-.251.458-.487.708-.708 5.17-4.557 8.134-11.115 8.138-18.007 0-4.418 3.582-8 8-8 13.249-.014 23.986-10.751 24-23.999zm-152 16h-16v-16h16zm-16-64c-.015-13.249-10.751-23.985-24-24v-16c22.081.025 39.975 17.919 40 40zm128-80v16h-16v-16zm-32-64h16v16h-16zm-40.472 27.915 15.689-3.139c4.306 21.658-9.731 42.714-31.379 47.069l-3.137-15.69c12.989-2.613 21.411-15.246 18.827-28.24zm1.42 253.654-15.69-3.138c2.584-12.994-5.838-25.629-18.827-28.241l3.138-15.689c21.648 4.354 35.686 25.41 31.379 47.068zm55.052-49.569h-16v-16h16zm-2.931-78.067 2.741 12.332-15.62 3.47-3.155-14.2-44.235 4.425-1.6-15.92 42.336-4.233-1.9-8.532-46.836 4.685-1.6-15.92 44.944-4.494-3.958-17.811 15.62-3.47 4.372 19.677 19.022-1.9 1.592 15.92-17.118 1.712 1.9 8.531 21.63-2.163 1.592 15.92z"/><path d="m224 .001c-123.712 0-224 100.288-224 224 0 59.409 23.6 116.384 65.608 158.392 87.477 87.477 229.307 87.477 316.784 0s87.477-229.306 0-316.784c-41.916-42.146-98.951-65.771-158.392-65.608zm-32 416c-12.584-.016-24.43-5.941-31.992-16h-.008c-12.584-.016-24.43-5.941-31.992-16h-.008c-22.081-.025-39.975-17.919-40-40 0-1.099.045-2.197.136-3.292-9.377-4.1-16.851-11.601-20.919-20.992-20.084-2.446-35.192-19.484-35.217-39.716v-.009c-17.67-13.25-21.254-38.316-8.004-55.987 2.911-3.882 6.504-7.202 10.604-9.797-6.319-16.666-.856-35.502 13.4-46.2v-.007c.025-20.233 15.133-37.27 35.217-39.716 4.068-9.391 11.542-16.892 20.919-20.992-.091-1.095-.136-2.192-.136-3.292.005-18.742 13.019-34.969 31.312-39.044 9.043-12.82 24.742-19.175 40.157-16.256 12.877-17.96 37.875-22.081 55.835-9.204.726.521 1.435 1.065 2.124 1.633 20.704 5.033 33.836 25.405 29.872 46.34 17.962 12.881 22.082 37.885 9.2 55.847-.856 1.193-1.777 2.339-2.758 3.431.959 2.738 1.618 5.573 1.967 8.453 20.324 8.689 29.756 32.209 21.067 52.533-4.049 9.472-11.595 17.018-21.067 21.067-.242 2-.634 3.979-1.174 5.92 20.586 8.035 30.76 31.236 22.725 51.822-5.027 12.881-16.349 22.253-29.941 24.786-1.13 6.047-3.638 11.751-7.329 16.672 13.261 17.662 9.693 42.731-7.97 55.991-5.617 4.218-12.247 6.881-19.22 7.723-6.292 14.738-20.775 24.296-36.8 24.286zm150.56-142.409 15.68-3.182c9.676 47.669-21.124 94.156-68.793 103.831-5.743 1.166-11.587 1.755-17.447 1.76v-16c39.805-.041 72.041-32.343 72-72.148-.005-4.79-.487-9.567-1.44-14.261zm-70.56 70.409v-16c22.081-.025 39.975-17.919 40-40h16c-.034 30.913-25.086 55.965-56 56zm19.994-210.653 8.012-13.85c26.786 15.473 35.957 49.73 20.484 76.516-1.924 3.331-4.186 6.455-6.751 9.322l-11.922-10.67c14.728-16.473 13.314-41.766-3.159-56.494-2.049-1.833-4.282-3.45-6.664-4.824zm8.8 100.666c36.453-15.913 53.104-58.363 37.191-94.816-10.412-23.853-32.884-40.231-58.779-42.842l1.582-15.921c48.367 4.866 83.632 48.02 78.766 96.388-3.184 31.652-23.2 59.123-52.354 71.853zm-28.794 173.987c-8.643.002-17.261-.924-25.706-2.761l3.412-15.633c56.171 12.257 111.643-23.342 123.901-79.513 1.584-7.258 2.386-14.665 2.393-22.093.02-12.695-2.294-25.285-6.826-37.143l14.944-5.714c23.63 61.96-7.443 131.345-69.403 154.975-13.64 5.202-28.115 7.873-42.715 7.882zm98.34-171.214c-13.736 19.675-33.065 34.771-55.482 43.331l-5.716-14.943c53.657-20.523 80.518-80.658 59.995-134.315-15.398-40.26-54.032-66.852-97.137-66.859v-16c66.281.007 120.007 53.745 120 120.026-.003 24.598-7.564 48.601-21.66 68.76z"/></svg>