<svg height="512" viewBox="0 0 64 64" width="512" xmlns="http://www.w3.org/2000/svg"><path d="m32 1a31 31 0 1 0 31 31 31.035 31.035 0 0 0 -31-31zm0 60a29 29 0 1 1 29-29 29.033 29.033 0 0 1 -29 29z"/><path d="m15.029 12a.992.992 0 0 0 .628-.223c.611-.493 1.249-.964 1.9-1.4a1 1 0 1 0 -1.112-1.662c-.7.468-1.388.975-2.045 1.507a1 1 0 0 0 .629 1.778z"/><path d="m13.521 12.289a1 1 0 0 0 -1.414.007 27.826 27.826 0 0 0 -8.107 19.704 1 1 0 0 0 2 0 25.847 25.847 0 0 1 7.527-18.3 1 1 0 0 0 -.006-1.411z"/><path d="m30.292 30.028 2.708-2.028a7 7 0 0 0 .812-10.487 7.117 7.117 0 0 0 -9.379-.588l-2.533 1.906a3.047 3.047 0 0 1 -1.657.589 9 9 0 0 0 -.71 17.888 9.159 9.159 0 0 0 1.3.092 8.99 8.99 0 0 0 8.436-5.939 3.041 3.041 0 0 1 1.023-1.433zm-2.917.762a6.988 6.988 0 0 1 -7.563 4.538 7 7 0 0 1 .545-13.911 5.05 5.05 0 0 0 2.743-.987l2.539-1.906a5.365 5.365 0 0 1 3.217-1.084 4.875 4.875 0 0 1 3.52 1.46 4.961 4.961 0 0 1 1.409 3.885 5.012 5.012 0 0 1 -1.985 3.615l-2.708 2.026a5.053 5.053 0 0 0 -1.717 2.364z"/><path d="m21 23a5 5 0 1 0 5 5 5.006 5.006 0 0 0 -5-5zm0 8a3 3 0 1 1 3-3 3 3 0 0 1 -3 3z"/><path d="m51 24a4 4 0 1 0 4 4 4 4 0 0 0 -4-4zm0 6a2 2 0 1 1 2-2 2 2 0 0 1 -2 2z"/><path d="m47.94 33.405a3 3 0 0 0 -4.306-2.076 3.988 3.988 0 0 0 -7.222-.067 3.938 3.938 0 0 0 -1.412-.262 4 4 0 0 0 -4 4 3.938 3.938 0 0 0 .262 1.412 3.983 3.983 0 0 0 -1.383 6.088 4 4 0 0 0 3.121 6.5 4.023 4.023 0 0 0 3.414-1.926 9.3 9.3 0 0 0 3.956.926 3.969 3.969 0 0 0 6.1-1.035 3.871 3.871 0 0 0 .53.035 4 4 0 0 0 4-4 3.958 3.958 0 0 0 -.772-2.346 4.97 4.97 0 0 0 -2.288-7.249zm.338 8.074a1.989 1.989 0 0 1 -2.02 3.374 1 1 0 0 0 -1.338.666 2 2 0 0 1 -1.92 1.481 1.973 1.973 0 0 1 -1.485-.677 1 1 0 0 0 -.746-.335h-.033l-.236.012a7.194 7.194 0 0 1 -4.018-1.188 1 1 0 0 0 -1.532.618 2 2 0 1 1 -3.052-2.1 1 1 0 0 0 0-1.666 1.99 1.99 0 0 1 .966-3.649 1 1 0 0 0 .668-1.674 1.99 1.99 0 0 1 2.813-2.811 1 1 0 0 0 1.674-.669 1.992 1.992 0 1 1 3.779.991 1 1 0 0 0 .644 1.4c.065.017.3.092.3.092a1 1 0 0 0 1.279-1.144 1.1 1.1 0 0 1 -.021-.2 1 1 0 0 1 2-.057c0 .024-.012.107-.014.131a1 1 0 0 0 .751 1.032 2.975 2.975 0 0 1 1.451 4.928 1 1 0 0 0 .088 1.445z"/><path d="m35.293 40.293-1 1a1 1 0 1 0 1.414 1.414l1-1a1 1 0 0 0 -1.414-1.414z"/><path d="m39.707 36.293a1 1 0 0 0 -1.414 0l-1 1a1 1 0 1 0 1.414 1.414l1-1a1 1 0 0 0 0-1.414z"/><path d="m43.793 37.793-4.5 4.5a1 1 0 1 0 1.414 1.414l4.5-4.5a1 1 0 0 0 -1.414-1.414z"/><path d="m29.293 23.293-1 1a1 1 0 1 0 1.414 1.414l1-1a1 1 0 0 0 -1.414-1.414z"/><path d="m29.707 19.293a1 1 0 0 0 -1.414 0l-2 2a1 1 0 1 0 1.414 1.414l2-2a1 1 0 0 0 0-1.414z"/><path d="m44 27a1 1 0 0 0 .707-.293l1-1a1 1 0 0 0 -1.414-1.414l-1 1a1 1 0 0 0 .707 1.707z"/><path d="m23.793 44.793-1.5 1.5a1 1 0 1 0 1.414 1.414l1.5-1.5a1 1 0 0 0 -1.414-1.414z"/><path d="m38 49a3 3 0 1 0 3 3 3 3 0 0 0 -3-3zm0 4a1 1 0 1 1 1-1 1 1 0 0 1 -1 1z"/></svg>