<?xml version="1.0"?>
<svg xmlns="http://www.w3.org/2000/svg" id="Layer_2" data-name="Layer 2" viewBox="0 0 128 128" width="512" height="512"><title>RECIPE</title><path d="M110,0H28A11.764,11.764,0,0,0,16.25,11.75v104.5A11.764,11.764,0,0,0,28,128h82a1.75,1.75,0,0,0,1.75-1.75V1.75A1.75,1.75,0,0,0,110,0ZM19.75,116.25V11.75A8.26,8.26,0,0,1,28,3.5h9.583v121H28A8.26,8.26,0,0,1,19.75,116.25Zm88.5,8.25H41.083V3.5H108.25Z"/><path d="M60.5,72.891h.417v15.8a1.75,1.75,0,0,0,1.75,1.75h24a1.75,1.75,0,0,0,1.75-1.75v-15.8h.416a12,12,0,0,0,0-24h-.644a13.734,13.734,0,0,0-27.046,0H60.5a12,12,0,0,0,0,24ZM84.917,86.943h-20.5V80.9h20.5ZM60.5,52.391h2.2a1.75,1.75,0,0,0,1.747-1.654,10.234,10.234,0,0,1,20.438,0,1.75,1.75,0,0,0,1.747,1.654h2.2a8.5,8.5,0,0,1,0,17H86.667a1.75,1.75,0,0,0-1.75,1.75V77.4H77.483L80.8,71.137A1.75,1.75,0,0,0,77.7,69.5l-3.036,5.741L71.63,69.5a1.75,1.75,0,0,0-3.094,1.637L71.851,77.4H64.417V71.141a1.75,1.75,0,0,0-1.75-1.75H60.5a8.5,8.5,0,0,1,0-17Z"/><path d="M93.167,98.75h-37a1.75,1.75,0,0,0,0,3.5h37a1.75,1.75,0,0,0,0-3.5Z"/><path d="M82,107.75H67.333a1.75,1.75,0,0,0,0,3.5H82a1.75,1.75,0,0,0,0-3.5Z"/><path d="M54.542,21.5h40.25a1.75,1.75,0,0,0,1.75-1.75V10a1.75,1.75,0,0,0-1.75-1.75H54.542A1.75,1.75,0,0,0,52.792,10v9.75A1.75,1.75,0,0,0,54.542,21.5Zm1.75-9.75h36.75V18H56.292Z"/></svg>
