<svg height="512.00003pt" viewBox="0 0 512.00003 512.00003" width="512.00003pt" xmlns="http://www.w3.org/2000/svg"><path d="m42.667969 512h290.132812c14.136719 0 25.597657-11.460938 25.597657-25.601562v-426.664063c0-14.140625-11.460938-25.601563-25.597657-25.601563h-290.132812c-23.554688.027344-42.6406252 19.113282-42.667969 42.667969v392.53125c.0273438 23.554688 19.113281 42.640625 42.667969 42.667969zm298.664062-452.265625v426.664063c0 4.714843-3.820312 8.535156-8.53125 8.535156h-247.46875v-25.601563h8.535157c4.710937 0 8.53125-3.820312 8.53125-8.53125 0-4.714843-3.820313-8.535156-8.53125-8.535156h-8.535157v-17.066406h8.535157c4.710937 0 8.53125-3.820313 8.53125-8.53125 0-4.714844-3.820313-8.535157-8.53125-8.535157h-8.535157v-17.066406h8.535157c4.710937 0 8.53125-3.820312 8.53125-8.53125 0-4.714844-3.820313-8.535156-8.53125-8.535156h-8.535157v-17.066406h8.535157c4.710937 0 8.53125-3.820313 8.53125-8.535156 0-4.710938-3.820313-8.53125-8.53125-8.53125h-8.535157v-17.066407h8.535157c4.710937 0 8.53125-3.820312 8.53125-8.535156 0-4.710937-3.820313-8.53125-8.53125-8.53125h-8.535157v-17.066406h8.535157c4.710937 0 8.53125-3.820313 8.53125-8.535157 0-4.710937-3.820313-8.53125-8.53125-8.53125h-8.535157v-17.066406h8.535157c4.710937 0 8.53125-3.824218 8.53125-8.535156s-3.820313-8.535156-8.53125-8.535156h-8.535157v-17.066406h8.535157c4.710937 0 8.53125-3.820313 8.53125-8.53125 0-4.714844-3.820313-8.535157-8.53125-8.535157h-8.535157v-17.066406h8.535157c4.710937 0 8.53125-3.820313 8.53125-8.53125 0-4.714844-3.820313-8.535156-8.53125-8.535156h-8.535157v-17.066407h8.535157c4.710937 0 8.53125-3.820312 8.53125-8.53125 0-4.714843-3.820313-8.535156-8.53125-8.535156h-8.535157v-17.066406h8.535157c4.710937 0 8.53125-3.820312 8.53125-8.535156 0-4.710938-3.820313-8.53125-8.53125-8.53125h-8.535157v-17.066406h8.535157c4.710937 0 8.53125-3.820313 8.53125-8.535157 0-4.710937-3.820313-8.53125-8.53125-8.53125h-8.535157v-25.601562h247.46875c4.710938 0 8.53125 3.820312 8.53125 8.535156zm-324.265625 17.066406c0-14.140625 11.460938-25.601562 25.601563-25.601562h25.597656v25.601562h-8.53125c-4.714844 0-8.535156 3.820313-8.535156 8.53125 0 4.714844 3.820312 8.535157 8.535156 8.535157h8.53125v17.066406h-8.53125c-4.714844 0-8.535156 3.820312-8.535156 8.53125 0 4.714844 3.820312 8.535156 8.535156 8.535156h8.53125v17.066406h-8.53125c-4.714844 0-8.535156 3.820313-8.535156 8.535156 0 4.710938 3.820312 8.53125 8.535156 8.53125h8.53125v17.066407h-8.53125c-4.714844 0-8.535156 3.820312-8.535156 8.535156 0 4.710937 3.820312 8.53125 8.535156 8.53125h8.53125v17.066406h-8.53125c-4.714844 0-8.535156 3.820313-8.535156 8.535157 0 4.710937 3.820312 8.53125 8.535156 8.53125h8.53125v17.066406h-8.53125c-4.714844 0-8.535156 3.824218-8.535156 8.535156s3.820312 8.535156 8.535156 8.535156h8.53125v17.066406h-8.53125c-4.714844 0-8.535156 3.820313-8.535156 8.53125 0 4.714844 3.820312 8.535157 8.535156 8.535157h8.53125v17.066406h-8.53125c-4.714844 0-8.535156 3.820313-8.535156 8.53125 0 4.714844 3.820312 8.535156 8.535156 8.535156h8.53125v17.066407h-8.53125c-4.714844 0-8.535156 3.820312-8.535156 8.53125 0 4.714843 3.820312 8.535156 8.535156 8.535156h8.53125v17.066406h-8.53125c-4.714844 0-8.535156 3.820312-8.535156 8.535156 0 4.710938 3.820312 8.53125 8.535156 8.53125h8.53125v17.066406h-8.53125c-4.714844 0-8.535156 3.820313-8.535156 8.535157 0 4.710937 3.820312 8.53125 8.535156 8.53125h8.53125v17.066406h-8.53125c-4.714844 0-8.535156 3.820313-8.535156 8.535156 0 4.710938 3.820312 8.53125 8.535156 8.53125h8.53125v25.601563h-25.597656c-14.140625 0-25.601563-11.460938-25.601563-25.601563zm0 0"/><path d="m154.503906 229.65625 3.414063 27.402344 4.265625 34.132812c.535156 4.277344 4.171875 7.484375 8.484375 7.476563h102.398437c4.304688-.003907 7.933594-3.207031 8.464844-7.476563l4.265625-34.132812 3.414063-27.402344c20.25-3.644531 35.003906-21.234375 35.0625-41.808594.058593-20.578125-14.59375-38.253906-34.824219-42.011718 3.71875-26.417969-8.292969-52.578126-30.75-66.976563-22.457031-14.402344-51.242188-14.402344-73.699219 0-22.457031 14.398437-34.46875 40.558594-30.75 66.976563-20.246094 3.738281-34.921875 21.421874-34.863281 42.011718.058593 20.585938 14.835937 38.1875 35.101562 41.808594zm67.363282 51.945312h-43.664063l-2.136719-17.066406h91.597656l-2.132812 17.066406zm-77.832032-111.976562c4.789063-4.8125 11.304688-7.511719 18.097656-7.492188h.972657l.855469.050782c6.425781.476562 12.4375 3.359375 16.835937 8.074218 3.246094 3.300782 8.53125 3.410157 11.914063.25 3.382812-3.164062 3.621093-8.449218.542968-11.90625-5.804687-6.1875-13.324218-10.492187-21.597656-12.367187-.632812-3.195313-.964844-6.441406-.988281-9.699219 0-28.277344 22.921875-51.203125 51.199219-51.203125 28.277343 0 51.199218 22.925781 51.199218 51.203125-.035156 3.261719-.378906 6.515625-1.023437 9.71875-8.273438 1.867188-15.796875 6.171875-21.597657 12.355469-2.171874 2.210937-2.976562 5.421875-2.101562 8.394531.878906 2.972656 3.296875 5.238282 6.320312 5.914063 3.023438.675781 6.179688-.335938 8.238282-2.652344 4.398437-4.714844 10.410156-7.597656 16.835937-8.074219l.855469-.050781h1.007812c9.144532 0 17.59375 4.878906 22.167969 12.800781s4.574219 17.679688 0 25.601563c-4.574219 7.917969-13.023437 12.800781-22.167969 12.800781-.363281.046875-.722656.117188-1.078124.210938-.605469.058593-1.203126.179687-1.78125.367187-.457032.183594-.898438.40625-1.316407.664063-.511719.273437-.996093.601562-1.441406.972656-.371094.359375-.710937.746094-1.015625 1.164062-.796875 1.273438-1.414062 2.652344-1.832031 4.09375l-3.339844 26.648438h-95.863281l-3.335938-26.65625c-.097656-.371094-.21875-.730469-.367187-1.082032-.199219-1.089843-.6875-2.105468-1.414063-2.9375-.332031-.460937-.703125-.886718-1.121094-1.269531-.410156-.339843-.855468-.640625-1.320312-.898437-.9375-.628906-2.027344-1-3.15625-1.066406-.355469-.097657-.71875-.171876-1.085938-.222657-10.355468.003907-19.691406-6.234375-23.65625-15.804687-3.960937-9.566406-1.769531-20.582032 5.558594-27.902344zm0 0"/><path d="m136.535156 358.398438h17.066406c4.710938 0 8.53125-3.820313 8.53125-8.53125 0-4.714844-3.820312-8.535157-8.53125-8.535157h-17.066406c-4.714844 0-8.535156 3.820313-8.535156 8.535157 0 4.710937 3.820312 8.53125 8.535156 8.53125zm0 0"/><path d="m307.199219 341.332031h-119.464844c-4.714844 0-8.535156 3.820313-8.535156 8.535157 0 4.710937 3.820312 8.53125 8.535156 8.53125h119.464844c4.714843 0 8.535156-3.820313 8.535156-8.53125 0-4.714844-3.820313-8.535157-8.535156-8.535157zm0 0"/><path d="m153.601562 409.601562h-17.066406c-4.714844 0-8.535156 3.820313-8.535156 8.53125 0 4.714844 3.820312 8.535157 8.535156 8.535157h17.066406c4.710938 0 8.53125-3.820313 8.53125-8.535157 0-4.710937-3.820312-8.53125-8.53125-8.53125zm0 0"/><path d="m307.199219 409.601562h-119.464844c-4.714844 0-8.535156 3.820313-8.535156 8.53125 0 4.714844 3.820312 8.535157 8.535156 8.535157h119.464844c4.714843 0 8.535156-3.820313 8.535156-8.535157 0-4.710937-3.820313-8.53125-8.535156-8.53125zm0 0"/><path d="m136.535156 392.535156h85.332032c4.710937 0 8.53125-3.824218 8.53125-8.535156s-3.820313-8.535156-8.53125-8.535156h-85.332032c-4.714844 0-8.535156 3.824218-8.535156 8.535156s3.820312 8.535156 8.535156 8.535156zm0 0"/><path d="m307.199219 375.464844h-51.199219c-4.710938 0-8.535156 3.824218-8.535156 8.535156s3.824218 8.535156 8.535156 8.535156h51.199219c4.714843 0 8.535156-3.824218 8.535156-8.535156s-3.820313-8.535156-8.535156-8.535156zm0 0"/><path d="m443.734375 0c-37.640625 0-68.269531 42.113281-68.269531 93.867188 0 39.304687 17.683594 72.992187 42.667968 86.953124v305.578126c0 14.140624 11.460938 25.601562 25.601563 25.601562 14.136719 0 25.597656-11.460938 25.597656-25.601562v-305.578126c24.988281-13.960937 42.667969-47.648437 42.667969-86.953124 0-51.753907-30.625-93.867188-68.265625-93.867188zm8.53125 486.398438c0 4.714843-3.820313 8.535156-8.53125 8.535156-4.714844 0-8.535156-3.820313-8.535156-8.535156v-299.476563c5.636719 1.082031 11.429687 1.082031 17.066406 0zm5.316406-318.667969-.179687.070312c-8.703125 3.8125-18.601563 3.8125-27.304688 0l-.179687-.070312c-21.554688-9.097657-37.382813-38.722657-37.382813-73.863281 0-42.34375 22.960938-76.800782 51.199219-76.800782 28.234375 0 51.199219 34.457032 51.199219 76.800782 0 35.140624-15.828125 64.765624-37.351563 73.863281zm0 0"/></svg>