<svg height="512pt" viewBox="-18 0 512 512" width="512pt" xmlns="http://www.w3.org/2000/svg"><path d="m355.265625 195.761719c0-.792969.480469-1.546875 1.246094-1.953125 16.921875-8.960938 27.433593-26.414063 27.433593-45.542969 0-28.367187-23.078124-51.480469-51.519531-51.523437-7.199219 0-14.164062 1.457031-20.714843 4.339843-.492188.214844-1.054688.023438-1.289063-.460937-11.332031-23.464844-35.484375-38.625-61.527344-38.625s-50.191406 15.160156-61.523437 38.625c-.238282.492187-.8125.667968-1.296875.457031-6.542969-2.878906-13.511719-4.335937-20.785157-4.335937-28.363281.042968-51.441406 23.15625-51.441406 51.523437 0 19.128906 10.511719 36.582031 27.417969 45.535156.777344.414063 1.261719 1.164063 1.261719 1.960938v113.25c0 14.96875 12.175781 27.140625 27.140625 27.140625h158.457031c14.964844 0 27.140625-12.171875 27.140625-27.140625zm-226.417969-47.496094c0-20.109375 16.355469-36.496094 36.515625-36.523437 5.105469 0 10.042969 1.03125 14.664063 3.0625 7.816406 3.4375 17.140625.027343 20.851562-7.660157 8.84375-18.3125 27.691406-30.148437 48.015625-30.148437s39.171875 11.832031 48.015625 30.144531c3.703125 7.664063 13.066406 11.097656 20.84375 7.667969 4.628906-2.035156 9.566406-3.066406 14.722656-3.066406 20.109376.027343 36.464844 16.414062 36.464844 36.523437 0 13.5625-7.453125 25.933594-19.464844 32.292969-5.683593 3.027344-9.214843 8.851562-9.214843 15.203125v47.296875h-182.734375v-47.296875c0-6.351563-3.53125-12.175781-9.230469-15.207031-11.996094-6.355469-19.449219-18.726563-19.449219-32.289063zm211.417969 160.75c0 6.691406-5.449219 12.140625-12.144531 12.140625h-158.453125c-6.695313 0-12.140625-5.445312-12.140625-12.140625v-50.957031h182.738281zm0 0"/><path d="m191.5625 300.742188c4.140625 0 7.5-3.355469 7.5-7.5v-10.375c0-4.144532-3.359375-7.5-7.5-7.5-4.144531 0-7.5 3.355468-7.5 7.5v10.375c0 4.140624 3.355469 7.5 7.5 7.5zm0 0"/><path d="m306.230469 300.742188c4.140625 0 7.5-3.355469 7.5-7.5v-10.375c0-4.144532-3.359375-7.5-7.5-7.5-4.144531 0-7.5 3.355468-7.5 7.5v10.375c0 4.140624 3.355469 7.5 7.5 7.5zm0 0"/><path d="m248.894531 306.28125c7.679688 0 14.894531-3.21875 19.796875-8.824219 2.726563-3.117187 2.410156-7.855469-.710937-10.585937-3.117188-2.726563-7.855469-2.40625-10.582031.714844-2.054688 2.347656-5.152344 3.695312-8.503907 3.695312-3.351562 0-6.449219-1.347656-8.503906-3.695312-2.726563-3.121094-7.464844-3.441407-10.582031-.714844-3.121094 2.726562-3.4375 7.464844-.710938 10.582031 4.902344 5.609375 12.117188 8.828125 19.796875 8.828125zm0 0"/><path d="m150.027344 364.636719c-4.144532 0-7.5 3.359375-7.5 7.5s3.355468 7.5 7.5 7.5h197.738281c4.140625 0 7.5-3.359375 7.5-7.5s-3.359375-7.5-7.5-7.5zm0 0"/><path d="m355.265625 410.742188c0-4.144532-3.359375-7.5-7.5-7.5h-197.738281c-4.144532 0-7.5 3.355468-7.5 7.5 0 4.140624 3.355468 7.5 7.5 7.5h197.738281c4.140625 0 7.5-3.359376 7.5-7.5zm0 0"/><path d="m418.589844 471.496094c0 14.0625-11.441406 25.503906-25.503906 25.503906h-42.566407c-4.140625 0-7.5 3.359375-7.5 7.5s3.359375 7.5 7.5 7.5h42.566407c22.335937 0 40.503906-18.167969 40.503906-40.503906v-49.609375h19.21875c12.894531 0 23.390625-10.492188 23.390625-23.390625v-61.6875c0-6.132813-2.375-11.714844-6.25-15.894532 3.875-4.171874 6.25-9.757812 6.25-15.886718v-61.691406c0-6.132813-2.375-11.714844-6.25-15.890626 3.875-4.175781 6.25-9.757812 6.25-15.890624v-61.691407c0-6.128906-2.375-11.714843-6.25-15.890625 3.875-4.171875 6.25-9.757812 6.25-15.886718v-61.691407c0-12.898437-10.496094-23.390625-23.390625-23.390625h-19.925782c-3.53125-18.761718-20.027343-33.003906-39.796874-33.003906h-234.566407c-4.140625 0-7.5 3.359375-7.5 7.5s3.359375 7.5 7.5 7.5h234.566407c14.0625 0 25.503906 11.441406 25.503906 25.503906zm42.609375-415.101563v61.6875c0 4.628907-3.765625 8.390625-8.390625 8.390625h-19.21875v-78.46875h19.21875c4.625 0 8.390625 3.761719 8.390625 8.390625zm0 93.46875v61.691407c0 4.625-3.765625 8.390624-8.390625 8.390624h-19.21875v-78.472656h19.21875c4.625 0 8.390625 3.765625 8.390625 8.390625zm0 93.472657v61.6875c0 4.628906-3.765625 8.390624-8.390625 8.390624h-19.21875v-78.46875h19.21875c4.625 0 8.390625 3.761719 8.390625 8.390626zm0 155.160156c0 4.625-3.765625 8.390625-8.390625 8.390625h-19.21875v-78.472657h19.21875c4.625 0 8.390625 3.765626 8.390625 8.394532zm0 0"/><path d="m79.640625 512h240.878906c4.144531 0 7.5-3.359375 7.5-7.5s-3.355469-7.5-7.5-7.5h-240.878906c-14.0625 0-25.5-11.441406-25.5-25.503906v-33.625h11.355469c14.910156 0 27.78125-12.882813 27.78125-27.785156 0-15.316407-12.460938-27.78125-27.78125-27.78125h-11.359375v-47.160157h11.355469c15.320312 0 27.785156-12.460937 27.785156-27.78125 0-15.320312-12.464844-27.785156-27.785156-27.785156h-11.355469v-47.15625h11.355469c15.320312 0 27.785156-12.460937 27.785156-27.785156 0-15.019531-12.777344-27.78125-27.785156-27.78125h-11.355469v-47.160157h11.355469c14.925781 0 27.785156-12.875 27.785156-27.78125 0-15.128906-12.660156-27.78125-27.785156-27.78125h-11.355469v-33.628906c0-14.0625 11.441406-25.503906 25.503906-25.503906h48.878906c4.144531 0 7.5-3.359375 7.5-7.5s-3.355469-7.5-7.5-7.5h-48.878906c-22.332031 0-40.503906 18.167969-40.503906 40.503906v33.625h-11.355469c-15.316406 0-27.78125 12.464844-27.78125 27.785156 0 15.320313 12.464844 27.78125 27.78125 27.78125h11.355469v47.160157h-11.355469c-15.316406 0-27.78125 12.460937-27.78125 27.78125 0 15.320312 12.464844 27.785156 27.78125 27.785156h11.355469v47.15625h-11.355469c-15.316406 0-27.78125 12.464844-27.78125 27.78125 0 15.320313 12.464844 27.785156 27.78125 27.785156h11.355469v47.15625h-11.355469c-15.316406 0-27.78125 12.464844-27.78125 27.785157 0 15.316406 12.464844 27.78125 27.78125 27.78125h11.355469v33.628906c0 22.335937 18.171875 40.503906 40.503906 40.503906zm-64.640625-410.085938c0-7.050781 5.734375-12.785156 12.78125-12.785156h37.710938c6.914062 0 12.785156 5.878906 12.785156 12.785156 0 7.046876-5.734375 12.78125-12.785156 12.78125h-37.710938c-7.046875 0-12.78125-5.734374-12.78125-12.78125zm0 102.722657c0-7.046875 5.734375-12.78125 12.78125-12.78125h37.710938c7.050781 0 12.785156 5.734375 12.785156 12.78125s-5.734375 12.785156-12.785156 12.785156h-37.710938c-7.046875 0-12.78125-5.734375-12.78125-12.785156zm0 102.726562c0-7.050781 5.734375-12.785156 12.78125-12.785156h37.710938c7.050781 0 12.785156 5.734375 12.785156 12.785156 0 7.046875-5.734375 12.78125-12.785156 12.78125h-37.710938c-7.046875 0-12.78125-5.734375-12.78125-12.78125zm0 102.722657c0-7.050782 5.734375-12.78125 12.78125-12.78125h37.710938c7.050781 0 12.785156 5.730468 12.785156 12.78125 0 7.050781-5.734375 12.78125-12.785156 12.78125h-37.710938c-7.046875.003906-12.78125-5.730469-12.78125-12.78125zm0 0"/></svg>