<svg height="493pt" viewBox="-46 0 493 493.656" width="493pt" xmlns="http://www.w3.org/2000/svg"><path d="m383.921875 333.65625c-2.960937-35.648438-25.441406-65.785156-56.738281-79.703125 1.953125-1.082031 3.800781-2.386719 5.425781-4.007813 3.765625-3.761718 6.125-8.5625 6.824219-13.746093 3.175781-4.160157 4.894531-9.214844 4.894531-14.542969s-1.71875-10.382812-4.894531-14.535156c-.699219-5.183594-3.058594-9.984375-6.824219-13.753906-3.769531-3.757813-8.554687-6.121094-13.746094-6.808594-8.296875-6.359375-20.785156-6.359375-29.078125 0-5.183594.6875-9.976562 3.050781-13.746094 6.816406-3.765624 3.769531-6.128906 8.5625-6.824218 13.746094-.566406.742187-1.03125 1.542968-1.503906 2.34375-17.574219-17.3125-41.582032-27.808594-67.382813-27.808594s-49.808594 10.496094-67.390625 27.808594c-.472656-.800782-.9375-1.601563-1.503906-2.34375-.699219-5.183594-3.058594-9.984375-6.824219-13.753906-3.769531-3.757813-8.554687-6.121094-13.746094-6.808594-8.296875-6.359375-20.785156-6.359375-29.078125 0-5.183594.6875-9.976562 3.050781-13.746094 6.816406-3.765624 3.769531-6.128906 8.5625-6.824218 13.746094-3.167969 4.152344-4.886719 9.207031-4.886719 14.535156s1.71875 10.382812 4.894531 14.535156c.699219 5.183594 3.058594 9.984375 6.824219 13.753906 1.625 1.621094 3.464844 2.925782 5.425781 4-31.289062 13.917969-53.777344 44.0625-56.738281 79.703126h-16.40625v56c0 39.695312 32.296875 72 72 72h172.800781c.199219.207031.34375.464843.550782.664062l9.679687 9.671875c5.785156 5.800781 8.96875 13.496094 8.96875 21.671875h16c0-12.457031-4.847656-24.167969-13.65625-32.96875l-9.679687-9.671875c-5.585938-5.589844-8.664063-13.023437-8.664063-20.925781 0-11.683594 6.894531-22.296875 17.566406-27.042969l21.679688-9.640625c19.90625-8.839844 32.753906-28.613281 32.753906-50.390625 0-16.136719-11.320313-30.261719-26.335937-32.863281-9.449219-1.640625-19.015626.917968-26.257813 7.015625-5.148437 4.335937-8.644531 10.128906-10.285156 16.496093h-16.402344c1.671875-10.015624 6.417969-19.222656 13.863281-26.457031 9.394532-9.117187 22.019532-13.984375 34.898438-13.519531 25.65625.761719 46.519531 23.335938 46.519531 50.3125 0 24.574219-14.503906 46.902344-36.96875 56.878906l-22.015625 9.792969c-7.902344 3.519531-13.015625 11.375-13.015625 20.023437 0 6.855469 3.273437 13.410157 8.777344 17.535157l.824219.625c14.023437 10.519531 22.398437 27.273437 22.398437 44.800781h16c0-11.207031-2.671875-22.152344-7.558594-32h23.558594c39.703125 0 72-32.304688 72-72v-56zm-32.011719 16h32.417969v16h-35.121094c1.496094-5.160156 2.304688-10.535156 2.703125-16zm-69.238281-133.65625 2.34375-2.34375v-3.320312c0-2.136719.832031-4.152344 2.34375-5.65625 1.503906-1.511719 3.519531-2.34375 5.65625-2.34375h3.320313l2.34375-2.351563c3-3.015625 8.296874-3.015625 11.296874 0l2.34375 2.351563h3.320313c2.136719 0 4.152344.832031 5.65625 2.335937 1.503906 1.511719 2.34375 3.519531 2.34375 5.664063v3.320312l2.34375 2.34375c1.511719 1.511719 2.34375 3.519531 2.34375 5.65625s-.832031 4.144531-2.34375 5.65625l-2.34375 2.34375v3.320312c0 2.136719-.832031 4.152344-2.34375 5.65625-1.503906 1.511719-3.519531 2.34375-5.65625 2.34375h-3.320313l-2.34375 2.351563c-3 3.015625-8.296874 3.015625-11.296874 0l-2.34375-2.351563h-3.320313c-1.769531 0-3.382813-.6875-4.769531-1.746093-.988282-2.261719-2.070313-4.476563-3.230469-6.636719v-2.9375l-2.34375-2.34375c-1.511719-1.511719-2.34375-3.519531-2.34375-5.65625s.832031-4.144531 2.34375-5.65625zm-82.34375-18.34375c28.863281 0 55.097656 15.6875 69.183594 39.839844.648437 3.390625 1.953125 6.609375 3.96875 9.425781-5.242188.8125-10.351563 2.007813-15.28125 3.644531-10.398438-22.335937-32.65625-36.910156-57.871094-36.910156s-47.472656 14.574219-57.871094 36.910156c-4.929687-1.628906-10.042969-2.824218-15.28125-3.644531 2.015625-2.808594 3.320313-6.027344 3.96875-9.417969 14.078125-24.152344 40.3125-39.847656 69.183594-39.847656zm29.609375 67.976562c-4.761719-11.695312-16.21875-19.976562-29.609375-19.976562s-24.847656 8.28125-29.609375 19.976562c-4.269531-3.289062-8.789062-6.273437-13.582031-8.816406 7.894531-16.464844 24.472656-27.160156 43.191406-27.160156s35.296875 10.695312 43.199219 27.160156c-4.800782 2.542969-9.3125 5.519532-13.589844 8.816406zm-12.960938 12.023438c-6.832031 7.609375-12.503906 16.253906-16.648437 25.742188-4.144531-9.496094-9.816406-18.140626-16.648437-25.742188h.648437c0-8.824219 7.175781-16 16-16s16 7.175781 16 16zm-142.304687-61.65625 2.34375-2.34375v-3.320312c0-2.136719.832031-4.152344 2.34375-5.65625 1.503906-1.511719 3.519531-2.34375 5.65625-2.34375h3.320313l2.34375-2.351563c3-3.015625 8.296874-3.015625 11.296874 0l2.34375 2.351563h3.320313c2.136719 0 4.152344.832031 5.65625 2.335937 1.503906 1.511719 2.34375 3.519531 2.34375 5.664063v3.320312l2.34375 2.34375c1.511719 1.511719 2.34375 3.519531 2.34375 5.65625s-.832031 4.144531-2.34375 5.65625l-2.34375 2.34375v2.9375c-1.152344 2.160156-2.234375 4.367188-3.226563 6.621094-1.382812 1.066406-3.007812 1.753906-4.773437 1.753906h-3.320313l-2.34375 2.351562c-3 3.015626-8.296874 3.015626-11.296874 0l-2.34375-2.351562h-3.320313c-2.136719 0-4.152344-.832031-5.65625-2.335938-1.503906-1.511718-2.34375-3.519531-2.34375-5.664062v-3.3125l-2.34375-2.34375c-1.511719-1.511719-2.34375-3.519531-2.34375-5.65625s.832031-4.144531 2.34375-5.65625zm37.65625 45.65625c41.40625 0 75.566406 31.632812 79.59375 72h-16.152344c-3.960937-31.519531-30.875-56-63.449219-56-32.578124 0-59.488281 24.480469-63.449218 56h-16.152344c4.042969-40.367188 38.203125-72 79.609375-72zm30.863281 72c-3.574218-13.761719-15.992187-24-30.863281-24s-27.289063 10.238281-30.863281 24h-16.417969c3.824219-22.664062 23.539063-40 47.28125-40s43.449219 17.335938 47.28125 40zm-17.085937 0h-27.554688c2.777344-4.761719 7.882813-8 13.777344-8s11 3.238281 13.777344 8zm177.597656 16c-1.007813 5.832031-3.328125 11.265625-6.695313 16h-280.679687v-16zm-44.304687 38.769531c-16.445313 7.308594-27.070313 23.664063-27.070313 41.664063 0 5.414062 1.078125 10.628906 2.878906 15.566406h-162.878906c-30.871094 0-56-25.121094-56-56v-8h258.296875zm18.640624-59.019531c3.664063-3.085938 8.359376-4.335938 13.21875-3.496094 4.4375.769532 8.191407 3.722656 10.535157 7.746094h-27.21875c.921875-1.578125 2.035156-3.046875 3.464843-4.25zm12.25-51.71875c-17.386718-.464844-34 5.871094-46.519531 18.03125-10.601562 10.28125-17.113281 23.539062-18.898437 37.9375h-16.144532c4.035157-40.367188 38.183594-72 79.59375-72 41.40625 0 75.566407 31.632812 79.589844 72h-16.460937c-4.769531-30.785156-30.335938-55.046875-61.160157-55.96875zm38.039063 167.96875h-34.503906c-3.121094-3.488281-6.511719-6.761719-10.3125-9.609375l-.824219-.613281c-1.480469-1.113282-2.359375-2.882813-2.359375-4.738282 0-2.335937 1.382813-4.457031 3.511719-5.40625l22.015625-9.785156c15.921875-7.070312 28.488281-19.183594 36.578125-33.847656h41.894531v8c0 30.878906-25.128906 56-56 56zm0 0"/><path d="m187.160156 63.511719c-6.992187 6.992187-10.832031 16.273437-10.832031 26.144531s3.839844 19.152344 10.832031 26.144531l7.03125 7.03125c3.960938 3.960938 6.136719 9.222657 6.136719 14.824219v20h16v-20c0-9.871094-3.839844-19.152344-10.832031-26.144531l-7.03125-7.03125c-3.960938-3.960938-6.136719-9.222657-6.136719-14.824219s2.175781-10.863281 6.144531-14.832031l7.03125-7.03125c6.984375-6.984375 10.824219-16.265625 10.824219-26.136719s-3.839844-19.152344-10.832031-26.144531l-15.511719-15.511719-11.3125 11.3125 15.511719 15.511719c3.96875 3.96875 6.144531 9.230469 6.144531 14.832031s-2.175781 10.863281-6.144531 14.832031zm0 0"/><path d="m243.160156 87.511719c-6.992187 6.992187-10.832031 16.273437-10.832031 26.144531s3.839844 19.152344 10.832031 26.144531l7.03125 7.03125c3.960938 3.960938 6.136719 9.222657 6.136719 14.824219v20h16v-20c0-9.871094-3.839844-19.152344-10.832031-26.144531l-7.03125-7.03125c-3.960938-3.960938-6.136719-9.222657-6.136719-14.824219s2.175781-10.863281 6.144531-14.832031l7.03125-7.03125c6.984375-6.984375 10.824219-16.265625 10.824219-26.136719s-3.839844-19.152344-10.832031-26.144531l-15.511719-15.511719-11.3125 11.3125 15.511719 15.511719c3.96875 3.96875 6.144531 9.230469 6.144531 14.832031s-2.175781 10.863281-6.144531 14.832031zm0 0"/><path d="m131.160156 87.511719c-6.992187 6.992187-10.832031 16.273437-10.832031 26.144531s3.839844 19.152344 10.832031 26.144531l7.03125 7.03125c3.960938 3.960938 6.136719 9.222657 6.136719 14.824219v20h16v-20c0-9.871094-3.839844-19.152344-10.832031-26.144531l-7.03125-7.03125c-3.960938-3.960938-6.136719-9.222657-6.136719-14.824219s2.175781-10.863281 6.144531-14.832031l7.03125-7.03125c6.984375-6.984375 10.824219-16.265625 10.824219-26.136719s-3.839844-19.152344-10.832031-26.144531l-15.511719-15.511719-11.3125 11.3125 15.511719 15.511719c3.96875 3.96875 6.144531 9.230469 6.144531 14.832031s-2.175781 10.863281-6.144531 14.832031zm0 0"/></svg>