<svg height="512pt" viewBox="0 -26 512 512" width="512pt" xmlns="http://www.w3.org/2000/svg"><path d="m116 160c5.519531 0 10-4.480469 10-10s-4.480469-10-10-10-10 4.480469-10 10 4.480469 10 10 10zm0 0"/><path d="m206 120c15.777344 0 30.597656-7.539062 39.980469-20h236.019531c16.542969 0 30-13.457031 30-30s-13.457031-30-30-30h-236.019531c-9.375-12.457031-24.199219-20-39.980469-20h-40v-10c0-5.523438-4.476562-10-10-10s-10 4.476562-10 10v10h-20v-10c0-5.523438-4.476562-10-10-10s-10 4.476562-10 10v10h-20v-10c0-5.523438-4.476562-10-10-10s-10 4.476562-10 10v10h-20c-5.523438 0-10 4.476562-10 10s4.476562 10 10 10h20v20h-20c-5.523438 0-10 4.476562-10 10s4.476562 10 10 10h20v20h-20c-5.523438 0-10 4.476562-10 10s4.476562 10 10 10h20v167.15625c-12.925781 14.617188-20 33.21875-20 52.84375h-36c-5.523438 0-10 4.476562-10 10 0 38.597656 31.402344 70 70 70h10v10c0 16.542969 13.457031 30 30 30h292c16.542969 0 30-13.457031 30-30v-10h10c38.597656 0 70-31.402344 70-70 0-5.523438-4.476562-10-10-10h-36c0-44.113281-35.886719-80-80-80-11.929688 0-23.609375 2.660156-34.273438 7.734375-22.660156-30.046875-57.789062-47.734375-95.726562-47.734375-34.871094 0-67.375 14.941406-90 40.691406v-140.691406zm286-50c0 5.515625-4.484375 10-10 10h-227.015625c.667969-3.28125 1.015625-6.628906 1.015625-10s-.347656-6.71875-1.015625-10h227.015625c5.515625 0 10 4.484375 10 10zm-286-30c16.253906 0 30 13.152344 30 30 0 16.859375-13.757812 30-30 30h-40v-20h20c5.523438 0 10-4.476562 10-10s-4.476562-10-10-10h-20v-20zm-100 300c0-11.027344 8.972656-20 20-20 4.054688 0 7.890625 1.199219 11.152344 3.40625-.765625 5.484375-1.152344 11.042969-1.152344 16.59375zm0-300v70c0 5.523438 4.476562 10 10 10s10-4.476562 10-10v-70h20v222.527344c-6.484375-1.679688-13.171875-2.527344-20-2.527344v-70c0-5.523438-4.476562-10-10-10s-10 4.476562-10 10v72.511719c-7.023438 1.800781-13.734375 4.574219-20 8.214843v-230.726562zm20 240c8.160156 0 16.035156 1.625 23.472656 4.804688-3.09375 5.9375-5.667968 12.097656-7.714844 18.449218-4.9375-2.117187-10.300781-3.253906-15.757812-3.253906-22.054688 0-40 17.945312-40 40h-20c0-32.921875 26.738281-60 60-60zm286 150c0 5.515625-4.484375 10-10 10h-292c-5.515625 0-10-4.484375-10-10v-10h312zm78.996094-70c-4.648438 22.792969-24.851563 40-48.996094 40h-372c-24.144531 0-44.351562-17.207031-48.996094-40zm-194.996094-20c0-22.054688-17.945312-40-40-40s-40 17.945312-40 40h-20c0-33.085938 26.914062-60 60-60s60 26.914062 60 60zm-60 0c0-11.027344 8.972656-20 20-20s20 8.972656 20 20zm138.847656-16.59375c3.261719-2.207031 7.097656-3.40625 11.152344-3.40625 11.027344 0 20 8.972656 20 20h-30c0-5.550781-.386719-11.113281-1.152344-16.59375zm71.152344 16.59375h-20c0-22.054688-17.945312-40-40-40-5.457031 0-10.820312 1.136719-15.757812 3.253906-2.046876-6.355468-4.625-12.519531-7.71875-18.457031 7.382812-3.148437 15.351562-4.796875 23.476562-4.796875 33.085938 0 60 26.914062 60 60zm-190-100c55.691406 0 100 45.34375 100 100h-20c0-44.113281-35.886719-80-80-80s-80 35.886719-80 80h-20c0-54.730469 44.378906-100 100-100zm0 0"/></svg>