<?xml version="1.0" encoding="iso-8859-1"?>
<!-- Generator: Adobe Illustrator 19.0.0, SVG Export Plug-In . SVG Version: 6.00 Build 0)  -->
<svg version="1.1" id="Layer_1" xmlns="http://www.w3.org/2000/svg" xmlns:xlink="http://www.w3.org/1999/xlink" x="0px" y="0px"
	 viewBox="0 0 512 512" style="enable-background:new 0 0 512 512;" xml:space="preserve">
<g>
	<g>
		<path d="M282.362,248.81h-3.984c-4.329,0-7.837,3.508-7.837,7.837c0,4.329,3.508,7.837,7.837,7.837h3.984
			c4.329,0,7.837-3.508,7.837-7.837C290.198,252.317,286.691,248.81,282.362,248.81z"/>
	</g>
</g>
<g>
	<g>
		<path d="M248.658,231.679h-3.984c-4.329,0-7.837,3.508-7.837,7.837c0,4.328,3.509,7.837,7.837,7.837h3.984
			c4.329,0,7.837-3.508,7.837-7.837C256.494,235.187,252.986,231.679,248.658,231.679z"/>
	</g>
</g>
<g>
	<g>
		<path d="M236.68,255.662h-3.984c-4.329,0-7.837,3.508-7.837,7.837c0,4.328,3.509,7.837,7.837,7.837h3.984
			c4.329,0,7.837-3.508,7.837-7.837C244.517,259.17,241.009,255.662,236.68,255.662z"/>
	</g>
</g>
<g>
	<g>
		<path d="M271.499,272.792h-3.984c-4.329,0-7.837,3.508-7.837,7.837c0,4.329,3.508,7.837,7.837,7.837h3.984
			c4.329,0,7.837-3.508,7.837-7.837C279.336,276.3,275.828,272.792,271.499,272.792z"/>
	</g>
</g>
<g>
	<g>
		<path d="M205.845,272.792h-3.984c-4.329,0-7.837,3.508-7.837,7.837c0.001,4.329,3.509,7.837,7.838,7.837h3.983
			c4.329,0,7.837-3.508,7.837-7.837C213.682,276.3,210.174,272.792,205.845,272.792z"/>
	</g>
</g>
<g>
	<g>
		<path d="M102.4,200.284H75.365c-14.762,0-26.771-12.009-26.771-26.771s12.009-26.771,26.771-26.771h25.765
			c4.328,0,7.837-3.508,7.837-7.837c0-4.329-3.509-7.837-7.837-7.837H75.365c-23.404,0-42.445,19.041-42.445,42.445
			s19.041,42.445,42.445,42.445H102.4c4.329,0,7.837-3.508,7.837-7.837C110.237,203.792,106.729,200.284,102.4,200.284z"/>
	</g>
</g>
<g>
	<g>
		<path d="M168.21,53.707h-34.131c-4.329,0-7.837,3.508-7.837,7.837s3.509,7.836,7.837,7.836h34.131
			c17.007,0,30.843,13.837,30.843,30.844c0,17.007-13.835,30.844-30.843,30.844h-30.229c-4.329,0-7.837,3.508-7.837,7.837
			c0,4.329,3.509,7.837,7.837,7.837h30.229c25.649,0,46.517-20.868,46.517-46.517C214.727,74.575,193.859,53.707,168.21,53.707z"/>
	</g>
</g>
<g>
	<g>
		<path d="M422.729,183.566h-62.227c-12.97,0-23.523-10.552-23.523-23.522c0-12.969,10.552-23.521,23.523-23.521h21.635
			c4.329,0,7.837-3.508,7.837-7.837c0-4.329-3.508-7.837-7.837-7.837h-21.635c-21.613,0-39.196,17.582-39.196,39.194
			c0,21.613,17.583,39.195,39.196,39.195h62.227c10.166,0,18.437,8.271,18.437,18.438v17.06c0,4.329,3.508,7.837,7.837,7.837
			c4.329,0,7.837-3.508,7.837-7.837v-17.06C456.84,198.869,441.537,183.566,422.729,183.566z"/>
	</g>
</g>
<g>
	<g>
		<path d="M487.579,379.444h-19.909c1.304-5.35,2.012-10.931,2.012-16.678c0-38.891-31.639-70.531-70.531-70.531h-5.392
			c0.133-1.283,0.208-2.581,0.208-3.897c0-20.897-17.002-37.898-37.898-37.898c-10.806,0-20.557,4.558-27.465,11.84
			c-3.464-2.42-7.408-4.197-11.662-5.145c-3.294-17.258-18.446-30.363-36.623-30.478c-0.975-1.637-2.074-3.174-3.265-4.625
			c3.14-3.748,5.738-7.989,7.63-12.641c6.503-15.99,3.871-34.355-6.868-47.93c-3.596-4.545-8.982-7.152-14.776-7.152
			c-0.809,0-1.626,0.053-2.425,0.157c-17.167,2.222-31.87,13.539-38.374,29.531c-0.576,1.415-1.06,2.85-1.493,4.297
			c-3.608-2.93-7.652-5.372-12.071-7.169c-5.746-2.335-11.813-3.519-18.032-3.519c-10.813,0-21.43,3.69-29.899,10.392
			c-5.161,4.084-7.841,10.676-6.994,17.201c2.226,17.163,13.541,31.867,29.533,38.376c1.014,0.413,2.039,0.778,3.07,1.118
			c-2.547,4.174-4.31,8.878-5.065,13.911c-2.074,0.807-4.027,1.832-5.863,3.015c-6.863-6.892-16.34-11.176-26.812-11.176
			c-20.897,0-37.898,17.002-37.898,37.898c0,1.318,0.075,2.615,0.208,3.897H102.4c-33.13,0-60.082,26.952-60.082,60.082
			c0,9.758,2.347,18.974,6.496,27.127H24.42c-13.466,0-24.42,10.955-24.42,24.42c0,13.466,10.955,24.42,24.42,24.42h53.363
			c12.561,18.442,33.636,30.008,56.684,30.008H303.02c4.329,0,7.837-3.508,7.837-7.837c0-4.329-3.508-7.837-7.837-7.837H134.467
			c-13.742,0-26.567-5.345-36.163-14.335h46.937c4.329,0,7.837-3.508,7.837-7.837s-3.508-7.837-7.837-7.837H24.42
			c-4.823,0-8.747-3.924-8.747-8.747s3.924-8.747,8.747-8.747h463.158c4.823,0,8.748,3.924,8.748,8.747s-3.925,8.747-8.748,8.747
			H177.633c-4.329,0-7.837,3.508-7.837,7.837s3.508,7.837,7.837,7.837h236.063c-9.597,8.99-22.421,14.335-36.164,14.335h-46.299
			c-4.329,0-7.837,3.508-7.837,7.837c0,4.329,3.508,7.837,7.837,7.837h46.299c23.046,0,44.123-11.565,56.684-30.008h53.363
			c13.467,0,24.421-10.955,24.421-24.42C512,390.398,501.045,379.444,487.579,379.444z M356.07,266.113
			c12.255,0,22.225,9.969,22.225,22.225c0,1.331-0.133,2.632-0.362,3.897h-35.334c0.086-0.964,0.133-1.939,0.133-2.926
			c0-5.474-1.345-10.639-3.717-15.187C343.095,269.236,349.221,266.113,356.07,266.113z M236.759,189.901
			c4.38-10.772,14.292-18.393,25.871-19.893c0.136-0.018,0.274-0.026,0.411-0.026c0.974,0,1.879,0.439,2.484,1.203
			c7.243,9.155,9.022,21.532,4.641,32.301c-1.321,3.248-3.161,6.191-5.383,8.779c-2.536-1.254-5.229-2.21-8.026-2.866l3.758-9.244
			c1.631-4.009-0.298-8.582-4.307-10.211c-4.013-1.634-8.582,0.299-10.211,4.307l-6.119,15.051
			c-1.299,0.289-2.582,0.631-3.831,1.052c-0.379-1.122-0.789-2.233-1.245-3.32C233.906,201.335,234.518,195.41,236.759,189.901z
			 M169.295,203.18c-0.143-1.097,0.309-2.206,1.178-2.893c5.711-4.52,12.875-7.009,20.173-7.009c4.186,0,8.266,0.796,12.127,2.366
			c7.516,3.058,13.479,8.82,16.916,15.952c0.144,0.712,0.3,1.42,0.477,2.125l-20.722-8.426c-4.008-1.633-8.582,0.298-10.211,4.307
			c-1.631,4.009,0.298,8.581,4.307,10.211l18.273,7.431c-4.152,0.739-8.069,2.159-11.631,4.147
			c-3.789-0.131-7.482-0.911-10.992-2.337C178.421,224.671,170.797,214.757,169.295,203.18z M190.137,272.314
			c3.765-0.69,6.479-3.996,6.424-7.822l-0.009-0.306c0-12.051,9.804-21.856,21.855-21.856c0.476,0,1.008,0.022,1.673,0.071
			c3.354,0.227,6.521-1.698,7.813-4.823c3.394-8.214,11.326-13.521,20.208-13.521c8.963,0,16.921,5.377,20.274,13.695
			c1.356,3.367,4.845,5.356,8.432,4.821c1.076-0.162,2.177-0.243,3.271-0.243c12.051,0,21.855,9.805,21.855,21.856
			c0,4.329,3.508,7.837,7.837,7.837c9.533,0,17.288,7.755,17.288,17.288c0,0.998-0.088,1.975-0.251,2.926H179.722h-3.477
			c-0.163-0.951-0.251-1.928-0.251-2.926C175.994,280.964,181.942,273.816,190.137,272.314z M148.616,266.113
			c6.306,0,11.986,2.654,16.028,6.889c-2.756,4.838-4.324,10.413-4.324,16.308c0,0.985,0.047,1.961,0.133,2.926h-33.7
			c-0.229-1.266-0.362-2.566-0.362-3.898C126.392,276.082,136.361,266.113,148.616,266.113z M179.722,375.827H102.4
			c-12.963,0-23.51-10.547-23.51-23.51s10.547-23.51,23.51-23.51h77.322c12.963,0,23.51,10.547,23.51,23.51
			S192.685,375.827,179.722,375.827z M214.827,379.444h-6.869c6.774-7.044,10.949-16.604,10.949-27.127
			c0-21.606-17.577-39.184-39.184-39.184H102.4c-21.606,0-39.184,17.577-39.184,39.184c0,10.522,4.174,20.083,10.95,27.127h-6.869
			c-5.82-7.508-9.304-16.912-9.304-27.127c0-24.487,19.921-44.408,44.408-44.408h77.322c24.487,0,44.408,19.921,44.408,44.408
			C224.131,362.531,220.647,371.935,214.827,379.444z M323.918,376.872h-77.322c-1.441,0-2.612-1.171-2.612-2.612
			s1.171-2.612,2.612-2.612h77.322c1.441,0,2.612,1.171,2.612,2.612S325.359,376.872,323.918,376.872z M346.849,379.444h-5.408
			c0.489-1.645,0.763-3.381,0.763-5.184c0-10.082-8.203-18.286-18.286-18.286h-77.322c-2.485,0-4.849,0.509-7.008,1.412
			c0.141-1.672,0.216-3.361,0.216-5.069c0-0.182-0.013-0.361-0.015-0.541c2.159-0.655,4.437-1.026,6.806-1.026h77.322
			c12.963,0,23.51,10.547,23.51,23.51C347.429,376.04,347.227,377.775,346.849,379.444z M368.021,379.444h-5.266
			c0.227-1.697,0.347-3.425,0.347-5.184c0-21.606-17.577-39.184-39.184-39.184h-77.322c-3.107,0-6.124,0.375-9.023,1.065
			c-0.472-1.689-1.011-3.35-1.625-4.976c3.414-0.847,6.976-1.313,10.646-1.313h77.322c24.487,0,44.408,19.921,44.408,44.408
			C368.327,376.013,368.221,377.743,368.021,379.444z M399.151,375.827h-15.195c0.014-0.522,0.044-1.042,0.044-1.567
			c0-1.229-0.049-2.446-0.121-3.657h14.227c4.329,0,7.837-3.508,7.837-7.837c0-4.329-3.508-7.837-7.837-7.837h-17.314
			c-0.607-1.781-1.295-3.523-2.061-5.224h20.419c7.203,0,13.061,5.859,13.061,13.061
			C412.212,369.968,406.354,375.827,399.151,375.827z M428.716,379.444h-6.197c3.371-4.707,5.367-10.46,5.367-16.678
			c0-15.844-12.891-28.735-28.735-28.735h-30.649c-1.674-1.853-3.469-3.592-5.359-5.225h36.008
			c18.726,0,33.959,15.234,33.959,33.959C433.11,368.825,431.51,374.515,428.716,379.444z M451.387,379.444h-5.516
			c1.872-5.216,2.913-10.823,2.913-16.678c0-27.367-22.266-49.633-49.633-49.633h-173.94c-1.586-1.838-3.268-3.59-5.064-5.224
			h179.004c30.248,0,54.857,24.609,54.857,54.857C454.008,368.583,453.075,374.181,451.387,379.444z"/>
	</g>
</g>
<g>
	<g>
		<path d="M179.722,334.031H102.4c-10.082,0-18.286,8.203-18.286,18.286s8.203,18.286,18.286,18.286h77.322
			c10.082,0,18.286-8.203,18.286-18.286C198.008,342.234,189.805,334.031,179.722,334.031z M179.722,354.929H102.4
			c-1.441,0-2.612-1.171-2.612-2.612s1.171-2.612,2.612-2.612h77.322c1.441,0,2.612,1.171,2.612,2.612
			C182.335,353.758,181.163,354.929,179.722,354.929z"/>
	</g>
</g>
<g>
</g>
<g>
</g>
<g>
</g>
<g>
</g>
<g>
</g>
<g>
</g>
<g>
</g>
<g>
</g>
<g>
</g>
<g>
</g>
<g>
</g>
<g>
</g>
<g>
</g>
<g>
</g>
<g>
</g>
</svg>
