<?xml version="1.0" encoding="iso-8859-1"?>
<!-- Generator: Adobe Illustrator 16.0.0, SVG Export Plug-In . SVG Version: 6.00 Build 0)  -->
<!DOCTYPE svg PUBLIC "-//W3C//DTD SVG 1.1//EN" "http://www.w3.org/Graphics/SVG/1.1/DTD/svg11.dtd">
<svg version="1.1" id="Capa_1" xmlns="http://www.w3.org/2000/svg" xmlns:xlink="http://www.w3.org/1999/xlink" x="0px" y="0px"
	 width="45.999px" height="46px" viewBox="0 0 45.999 46" style="enable-background:new 0 0 45.999 46;" xml:space="preserve">
<g>
	<g>
		<path d="M45.896,31.495c-0.096-0.124-0.241-0.196-0.396-0.196h-4.639c-1.229-4.321-5.568-8.181-14.86-8.181
			c-2.848,0-5.88,0.499-8.738,1.368c-0.09-0.881-0.395-1.434-0.659-1.874c-0.27-0.449-0.483-0.804-0.483-1.577
			s0.213-1.127,0.483-1.575c0.312-0.517,0.699-1.16,0.699-2.35v-4.366h0.864c1.506,0,2.464-0.769,3.309-1.448
			c0.646-0.52,1.205-0.968,1.972-1.064c2.509-0.314,14.308-3.43,14.809-3.563c0.534-0.141,0.853-0.688,0.711-1.223
			c-0.142-0.534-0.688-0.854-1.223-0.711c-0.121,0.032-12.169,3.214-14.547,3.512c-1.33,0.167-2.204,0.87-2.975,1.49
			c-0.777,0.624-1.292,1.007-2.056,1.007h-0.864v-0.503c0-0.414-0.336-0.75-0.75-0.75c-0.414,0-0.75,0.336-0.75,0.75v0.502h-0.858
			v-0.502c0-0.414-0.336-0.75-0.75-0.75s-0.75,0.336-0.75,0.75v0.502h-0.857v-0.502c0-0.414-0.336-0.75-0.75-0.75
			s-0.75,0.336-0.75,0.75v0.502H10.23v-0.502c0-0.414-0.336-0.75-0.75-0.75s-0.75,0.336-0.75,0.75v0.502H8c-0.552,0-1,0.448-1,1
			c0,0.552,0.448,1,1,1h0.729v4.366c0,0.773-0.213,1.127-0.483,1.576c-0.312,0.517-0.699,1.16-0.699,2.349s0.387,1.833,0.698,2.351
			c0.271,0.449,0.484,0.805,0.484,1.581c0,0.773-0.213,1.128-0.483,1.578c-0.312,0.52-0.699,1.162-0.699,2.354
			c0,0.233,0.115,0.437,0.285,0.574c-0.642,0.583-1.197,1.193-1.656,1.826H0.5c-0.156,0-0.302,0.072-0.397,0.196
			s-0.126,0.284-0.086,0.436c1.223,4.523,6.129,9.368,11.483,9.368h23c5.354,0,10.261-4.845,11.482-9.368
			C46.022,31.779,45.992,31.619,45.896,31.495z M15.75,30.308c1.839,0,3.354,0.354,4.459,0.989h-9.504
			C12.267,30.695,14.053,30.308,15.75,30.308z M22.544,31.298c-1.283-1.506-3.529-2.405-6.419-2.479
			c0.001-0.047,0.007-0.086,0.009-0.13c1.006-0.174,2.026-0.278,3.032-0.278c3.712,0,6.469,1.058,7.873,2.888L22.544,31.298
			L22.544,31.298z M28.818,31.298c-1.266-2.434-4.216-4.388-9.651-4.388c-0.28,0-0.566,0.017-0.851,0.031
			c1.411-0.273,2.852-0.428,4.268-0.428c5.402,0,9.214,1.775,10.671,4.783L28.818,31.298L28.818,31.298z M39.295,31.298H34.88
			c-1.267-3.389-4.929-6.283-12.297-6.283c-0.438,0-0.881,0.017-1.327,0.044c1.572-0.283,3.17-0.441,4.743-0.441
			C33.046,24.617,37.862,27.118,39.295,31.298z M15.802,12.742v4.366c0,0.773-0.213,1.127-0.483,1.576
			c-0.312,0.517-0.699,1.16-0.699,2.349s0.387,1.833,0.698,2.35c0.271,0.45,0.484,0.806,0.484,1.582
			c-0.298,0.106-0.593,0.218-0.885,0.331c0.008-0.11,0.027-0.207,0.027-0.331c0-1.19-0.387-1.836-0.698-2.354
			c-0.27-0.449-0.483-0.804-0.483-1.577s0.213-1.127,0.483-1.576c0.311-0.517,0.698-1.16,0.698-2.35v-4.366H15.802z M13.444,12.742
			v4.366c0,0.773-0.213,1.127-0.483,1.576c-0.311,0.517-0.698,1.16-0.698,2.349s0.387,1.833,0.698,2.35
			c0.271,0.45,0.484,0.806,0.484,1.582c0,0.462-0.082,0.771-0.201,1.043c-0.311,0.146-0.616,0.293-0.917,0.446
			c0.149-0.386,0.26-0.856,0.26-1.49c0-1.19-0.387-1.835-0.699-2.354c-0.27-0.449-0.483-0.804-0.483-1.577s0.213-1.127,0.483-1.575
			c0.312-0.517,0.699-1.16,0.699-2.35v-4.366H13.444z M9.53,22.611c-0.27-0.449-0.483-0.804-0.483-1.577s0.213-1.127,0.483-1.575
			c0.312-0.517,0.699-1.16,0.699-2.35v-4.366h0.858v4.366c0,0.773-0.213,1.127-0.483,1.576c-0.312,0.517-0.699,1.16-0.699,2.349
			s0.387,1.833,0.698,2.351c0.271,0.449,0.484,0.805,0.484,1.581c0,0.773-0.213,1.128-0.483,1.578
			c-0.192,0.32-0.404,0.706-0.545,1.224c-0.338,0.222-0.666,0.447-0.979,0.682c0.067-0.48,0.24-0.78,0.451-1.131
			c0.311-0.519,0.698-1.161,0.698-2.353C10.229,23.773,9.841,23.128,9.53,22.611z"/>
	</g>
</g>
<g>
</g>
<g>
</g>
<g>
</g>
<g>
</g>
<g>
</g>
<g>
</g>
<g>
</g>
<g>
</g>
<g>
</g>
<g>
</g>
<g>
</g>
<g>
</g>
<g>
</g>
<g>
</g>
<g>
</g>
</svg>
